M48
; DRILL file KiCad 10.0.3 date 2026-09-24T12:22:48
; FORMAT={-:-/ absolute / metric / decimal}
; #@! TF.CreationDate,2026-09-24T12:22:48-04:00
; #@! TF.GenerationSoftware,Kicad,Pcbnew,10.0.3
; #@! TF.FileFunction,Plated,1,2,PTH
FMAT,2
METRIC
; #@! TA.AperFunction,Plated,PTH,ViaDrill
T1C0.300
; #@! TA.AperFunction,Plated,PTH,ComponentDrill
T2C0.889
; #@! TA.AperFunction,Plated,PTH,ComponentDrill
T3C1.000
; #@! TA.AperFunction,Plated,PTH,ComponentDrill
T4C1.500
%
G90
G05
T1
X130.556Y-87.884
X153.67Y-81.28
X159.48Y-84.426
T2
X138.38Y-74.948
X138.38Y-77.489
X138.38Y-80.028
X138.38Y-82.569
X138.38Y-85.108
X138.38Y-87.648
X138.38Y-90.188
X153.62Y-74.948
X153.62Y-77.489
X153.62Y-80.028
X153.62Y-82.569
X153.62Y-85.108
X153.62Y-87.648
X153.62Y-90.188
T3
X109.474Y-89.662
X112.014Y-89.662
X114.554Y-89.662
X117.094Y-89.662
X119.634Y-89.662
X122.174Y-89.662
X124.714Y-89.662
X127.254Y-89.662
X176.5Y-81.7
X176.5Y-89.3
T4
X114.63Y-108.33
X120.98Y-105.79
X133.88Y-108.33
X140.23Y-105.79
X153.13Y-108.33
X159.48Y-105.79
X172.4Y-108.33
X178.75Y-105.79
M30
