%TF.GenerationSoftware,KiCad,Pcbnew,10.0.3*%
%TF.CreationDate,2026-09-18T19:13:17-04:00*%
%TF.ProjectId,Alarm clock,416c6172-6d20-4636-9c6f-636b2e6b6963,rev?*%
%TF.SameCoordinates,Original*%
%TF.FileFunction,Copper,L2,Bot*%
%TF.FilePolarity,Positive*%
%FSLAX46Y46*%
G04 Gerber Fmt 4.6, Leading zero omitted, Abs format (unit mm)*
G04 Created by KiCad (PCBNEW 10.0.3) date 2026-09-18 19:13:17*
%MOMM*%
%LPD*%
G01*
G04 APERTURE LIST*
G04 Aperture macros list*
%AMRoundRect*
0 Rectangle with rounded corners*
0 $1 Rounding radius*
0 $2 $3 $4 $5 $6 $7 $8 $9 X,Y pos of 4 corners*
0 Add a 4 corners polygon primitive as box body*
4,1,4,$2,$3,$4,$5,$6,$7,$8,$9,$2,$3,0*
0 Add four circle primitives for the rounded corners*
1,1,$1+$1,$2,$3*
1,1,$1+$1,$4,$5*
1,1,$1+$1,$6,$7*
1,1,$1+$1,$8,$9*
0 Add four rect primitives between the rounded corners*
20,1,$1+$1,$2,$3,$4,$5,0*
20,1,$1+$1,$4,$5,$6,$7,0*
20,1,$1+$1,$6,$7,$8,$9,0*
20,1,$1+$1,$8,$9,$2,$3,0*%
G04 Aperture macros list end*
%TA.AperFunction,ComponentPad*%
%ADD10C,2.200000*%
%TD*%
%TA.AperFunction,ComponentPad*%
%ADD11R,2.000000X2.000000*%
%TD*%
%TA.AperFunction,ComponentPad*%
%ADD12C,2.000000*%
%TD*%
%TA.AperFunction,ComponentPad*%
%ADD13R,1.700000X1.700000*%
%TD*%
%TA.AperFunction,ComponentPad*%
%ADD14C,1.700000*%
%TD*%
%TA.AperFunction,ComponentPad*%
%ADD15C,1.524000*%
%TD*%
%TA.AperFunction,SMDPad,CuDef*%
%ADD16RoundRect,0.152400X-1.063600X-0.609600X1.063600X-0.609600X1.063600X0.609600X-1.063600X0.609600X0*%
%TD*%
%TA.AperFunction,SMDPad,CuDef*%
%ADD17RoundRect,0.152400X1.063600X0.609600X-1.063600X0.609600X-1.063600X-0.609600X1.063600X-0.609600X0*%
%TD*%
%TA.AperFunction,Conductor*%
%ADD18C,0.200000*%
%TD*%
G04 APERTURE END LIST*
D10*
%TO.P,SW1,1,1_1*%
%TO.N,GND*%
X114630000Y-108330000D03*
%TO.P,SW1,2,2_2*%
%TO.N,Net-(U1-D0)*%
X120980000Y-105790000D03*
%TD*%
%TO.P,SW3,1,1_1*%
%TO.N,GND*%
X153130000Y-108330000D03*
%TO.P,SW3,2,2_2*%
%TO.N,Net-(U1-D2)*%
X159480000Y-105790000D03*
%TD*%
%TO.P,SW2,1,1_1*%
%TO.N,GND*%
X133880000Y-108330000D03*
%TO.P,SW2,2,2_2*%
%TO.N,Net-(U1-D1)*%
X140230000Y-105790000D03*
%TD*%
%TO.P,SW4,1,1_1*%
%TO.N,GND*%
X172400000Y-108330000D03*
%TO.P,SW4,2,2_2*%
%TO.N,Net-(U1-D3)*%
X178750000Y-105790000D03*
%TD*%
D11*
%TO.P,BZ1,1,+_1*%
%TO.N,Net-(BZ1-+)*%
X176500000Y-89300000D03*
D12*
%TO.P,BZ1,2,-_2*%
%TO.N,GND*%
X176500000Y-81700000D03*
%TD*%
D13*
%TO.P,J1,1,Pin_1_1*%
%TO.N,GND*%
X127254000Y-89662000D03*
D14*
%TO.P,J1,2,Pin_2_2*%
%TO.N,+3V3*%
X124714000Y-89662000D03*
%TO.P,J1,3,Pin_3_3*%
%TO.N,/SDA*%
X122174000Y-89662000D03*
%TO.P,J1,4,Pin_4_4*%
%TO.N,/SCL*%
X119634000Y-89662000D03*
%TO.P,J1,5,Pin_5_5*%
%TO.N,/RST*%
X117094000Y-89662000D03*
%TO.P,J1,6,Pin_6_6*%
%TO.N,/DC*%
X114554000Y-89662000D03*
%TO.P,J1,7,Pin_7_7*%
%TO.N,/CS*%
X112014000Y-89662000D03*
%TO.P,J1,8,Pin_8_8*%
%TO.N,/BL*%
X109474000Y-89662000D03*
%TD*%
D15*
%TO.P,U1,1,D0_1*%
%TO.N,Net-(U1-D0)*%
X153620000Y-74948500D03*
D16*
X154455000Y-74948500D03*
D15*
%TO.P,U1,2,D1_2*%
%TO.N,Net-(U1-D1)*%
X153620000Y-77488500D03*
D16*
X154455000Y-77488500D03*
D15*
%TO.P,U1,3,D2_3*%
%TO.N,Net-(U1-D2)*%
X153620000Y-80028500D03*
D16*
X154455000Y-80028500D03*
D15*
%TO.P,U1,4,D3_4*%
%TO.N,Net-(U1-D3)*%
X153620000Y-82568500D03*
D16*
X154455000Y-82568500D03*
D15*
%TO.P,U1,5,D4_5*%
%TO.N,/DC*%
X153620000Y-85108500D03*
D16*
X154455000Y-85108500D03*
D15*
%TO.P,U1,6,D5_6*%
%TO.N,/CS*%
X153620000Y-87648500D03*
D16*
X154455000Y-87648500D03*
D15*
%TO.P,U1,7,D6_7*%
%TO.N,/BL*%
X153620000Y-90188500D03*
D16*
X154455000Y-90188500D03*
D17*
%TO.P,U1,8,D7_8*%
%TO.N,Net-(BZ1-+)*%
X137545000Y-90188500D03*
D15*
X138380000Y-90188500D03*
D17*
%TO.P,U1,9,D8_9*%
%TO.N,/RST*%
X137545000Y-87648500D03*
D15*
X138380000Y-87648500D03*
D17*
%TO.P,U1,10,D9/BOOT_10*%
%TO.N,/SCL*%
X137545000Y-85108500D03*
D15*
X138380000Y-85108500D03*
D17*
%TO.P,U1,11,D10_11*%
%TO.N,/SDA*%
X137545000Y-82568500D03*
D15*
X138380000Y-82568500D03*
D17*
%TO.P,U1,12,3V3_OUT_12*%
%TO.N,+3V3*%
X137545000Y-80028500D03*
D15*
X138380000Y-80028500D03*
D17*
%TO.P,U1,13,GND_13*%
%TO.N,GND*%
X137545000Y-77488500D03*
D15*
X138380000Y-77488500D03*
D17*
%TO.P,U1,14,VBUS_14*%
%TO.N,unconnected-(U1-VBUS-Pad14)_1*%
X137545000Y-74948500D03*
D15*
%TO.N,unconnected-(U1-VBUS-Pad14)*%
X138380000Y-74948500D03*
%TD*%
%TO.N,Net-(BZ1-+)*%
D18*
X174549500Y-91250500D02*
X176500000Y-89300000D01*
X138380000Y-90188500D02*
X139442000Y-91250500D01*
X139442000Y-91250500D02*
X174549500Y-91250500D01*
%TD*%
M02*
