%TF.GenerationSoftware,KiCad,Pcbnew,10.0.3*%
%TF.CreationDate,2026-09-18T19:13:17-04:00*%
%TF.ProjectId,Alarm clock,416c6172-6d20-4636-9c6f-636b2e6b6963,rev?*%
%TF.SameCoordinates,Original*%
%TF.FileFunction,Legend,Top*%
%TF.FilePolarity,Positive*%
%FSLAX46Y46*%
G04 Gerber Fmt 4.6, Leading zero omitted, Abs format (unit mm)*
G04 Created by KiCad (PCBNEW 10.0.3) date 2026-09-18 19:13:17*
%MOMM*%
%LPD*%
G01*
G04 APERTURE LIST*
%ADD10C,0.400000*%
%ADD11C,0.150000*%
%ADD12C,0.120000*%
G04 APERTURE END LIST*
D10*
G36*
X112251075Y-78952621D02*
G01*
X112224284Y-78901072D01*
X112213584Y-78892293D01*
X112200803Y-78904181D01*
X112168154Y-78977045D01*
X111875674Y-79643584D01*
X111622882Y-80205098D01*
X111612258Y-80248451D01*
X111627034Y-80282767D01*
X111648090Y-80296245D01*
X111700674Y-80314519D01*
X111753182Y-80333309D01*
X111775290Y-80348468D01*
X111787359Y-80367267D01*
X111791288Y-80388036D01*
X111782215Y-80424741D01*
X111756101Y-80446720D01*
X111705436Y-80455447D01*
X111611403Y-80443723D01*
X111488182Y-80432000D01*
X111384501Y-80439815D01*
X111306466Y-80447631D01*
X111273267Y-80443063D01*
X111247847Y-80430290D01*
X111230140Y-80410689D01*
X111224644Y-80389013D01*
X111229091Y-80356031D01*
X111239543Y-80340164D01*
X111292177Y-80322579D01*
X111358902Y-80304467D01*
X111405496Y-80277923D01*
X111436769Y-80243810D01*
X111488825Y-80144179D01*
X111643154Y-79804051D01*
X111973737Y-79065827D01*
X112129930Y-78714240D01*
X112157424Y-78631810D01*
X112164613Y-78580761D01*
X112153011Y-78521776D01*
X112141410Y-78459128D01*
X112152755Y-78426645D01*
X112187694Y-78415531D01*
X112232392Y-78422201D01*
X112269995Y-78441664D01*
X112302366Y-78475126D01*
X112346371Y-78548721D01*
X112416672Y-78697387D01*
X112795126Y-79551260D01*
X113055855Y-80127673D01*
X113110632Y-80226524D01*
X113144515Y-80269334D01*
X113181938Y-80296474D01*
X113227314Y-80315862D01*
X113271385Y-80332854D01*
X113294480Y-80347858D01*
X113307986Y-80368747D01*
X113313287Y-80404644D01*
X113305111Y-80430653D01*
X113279014Y-80447998D01*
X113223284Y-80455447D01*
X113118503Y-80443723D01*
X112967806Y-80432000D01*
X112811612Y-80443723D01*
X112699993Y-80455447D01*
X112655454Y-80450713D01*
X112623667Y-80438106D01*
X112601979Y-80417221D01*
X112594969Y-80390112D01*
X112599418Y-80366219D01*
X112612432Y-80347369D01*
X112637411Y-80334788D01*
X112701581Y-80323800D01*
X112765479Y-80311247D01*
X112793294Y-80294369D01*
X112808361Y-80269256D01*
X112813566Y-80237826D01*
X112801020Y-80186171D01*
X112736141Y-80029609D01*
X112662215Y-79878102D01*
X112640642Y-79848381D01*
X112617971Y-79841280D01*
X112568835Y-79838001D01*
X111958228Y-79838001D01*
X111923186Y-79832215D01*
X111891305Y-79814676D01*
X111868522Y-79788571D01*
X111861385Y-79759477D01*
X111867037Y-79736711D01*
X111885199Y-79716002D01*
X111910595Y-79701979D01*
X111939055Y-79697317D01*
X112526581Y-79697317D01*
X112564264Y-79692472D01*
X112571766Y-79683517D01*
X112553081Y-79631982D01*
X112251075Y-78952621D01*
G37*
G36*
X114404076Y-80265914D02*
G01*
X114436680Y-80290868D01*
X114476249Y-80299131D01*
X114500197Y-80291323D01*
X114535967Y-80260053D01*
X114571736Y-80228707D01*
X114595073Y-80220974D01*
X114615577Y-80225875D01*
X114634152Y-80241490D01*
X114646870Y-80262842D01*
X114650883Y-80284355D01*
X114643385Y-80327525D01*
X114619399Y-80372228D01*
X114574435Y-80420276D01*
X114496002Y-80471608D01*
X114427034Y-80486710D01*
X114362453Y-80473164D01*
X114276825Y-80424428D01*
X114184278Y-80342169D01*
X114023789Y-80163943D01*
X113911941Y-80042238D01*
X113880541Y-80022404D01*
X113845736Y-80048294D01*
X113787973Y-80102150D01*
X113753779Y-80145258D01*
X113750604Y-80238437D01*
X113755171Y-80271026D01*
X113768189Y-80297177D01*
X113793116Y-80315551D01*
X113849156Y-80329784D01*
X113905472Y-80342994D01*
X113927924Y-80357872D01*
X113939265Y-80379005D01*
X113943189Y-80404889D01*
X113939648Y-80426358D01*
X113929756Y-80441891D01*
X113911849Y-80451245D01*
X113872359Y-80455447D01*
X113750482Y-80443723D01*
X113629215Y-80432000D01*
X113517474Y-80443723D01*
X113405122Y-80455447D01*
X113350218Y-80447474D01*
X113323715Y-80428452D01*
X113315119Y-80398905D01*
X113318937Y-80374427D01*
X113329773Y-80355551D01*
X113352019Y-80342756D01*
X113413182Y-80331005D01*
X113473198Y-80315550D01*
X113501598Y-80290827D01*
X113516227Y-80255799D01*
X113521382Y-80212914D01*
X113521382Y-78732069D01*
X113516464Y-78697460D01*
X113502331Y-78669177D01*
X113475506Y-78647766D01*
X113415136Y-78626801D01*
X113354427Y-78607625D01*
X113330995Y-78592240D01*
X113319155Y-78572214D01*
X113315119Y-78548032D01*
X113320934Y-78526876D01*
X113339665Y-78508953D01*
X113388758Y-78493688D01*
X113459588Y-78505412D01*
X113533472Y-78517136D01*
X113608210Y-78509320D01*
X113668782Y-78501504D01*
X113695032Y-78505514D01*
X113712502Y-78516281D01*
X113726196Y-78539462D01*
X113738758Y-78591019D01*
X113747795Y-78827324D01*
X113747795Y-79901993D01*
X113753615Y-79925523D01*
X113768434Y-79932157D01*
X113790085Y-79919458D01*
X113876389Y-79838978D01*
X114056884Y-79658482D01*
X114070684Y-79638699D01*
X114037833Y-79620258D01*
X114012909Y-79602567D01*
X114005105Y-79577394D01*
X114008995Y-79549811D01*
X114019149Y-79532331D01*
X114037816Y-79522059D01*
X114077279Y-79517554D01*
X114160077Y-79521462D01*
X114245318Y-79525370D01*
X114357792Y-79517554D01*
X114470754Y-79509739D01*
X114509559Y-79514287D01*
X114542195Y-79527324D01*
X114565611Y-79548720D01*
X114573092Y-79576417D01*
X114563621Y-79606212D01*
X114533236Y-79626185D01*
X114468067Y-79634791D01*
X114331508Y-79642097D01*
X114264491Y-79658238D01*
X114209533Y-79689839D01*
X114138584Y-79749829D01*
X114060182Y-79827376D01*
X114052488Y-79852289D01*
X114059491Y-79883803D01*
X114082774Y-79917380D01*
X114404076Y-80265914D01*
G37*
G36*
X115130454Y-80239414D02*
G01*
X115135510Y-80273998D01*
X115149993Y-80301818D01*
X115177463Y-80321370D01*
X115238653Y-80336745D01*
X115300002Y-80350640D01*
X115323528Y-80365199D01*
X115335393Y-80385941D01*
X115339526Y-80412094D01*
X115331728Y-80438811D01*
X115307649Y-80456035D01*
X115257704Y-80463263D01*
X115135949Y-80451539D01*
X115014561Y-80439815D01*
X114902819Y-80451539D01*
X114790468Y-80463263D01*
X114728984Y-80454934D01*
X114700053Y-80435467D01*
X114690939Y-80406110D01*
X114694778Y-80381480D01*
X114705593Y-80362879D01*
X114728083Y-80350381D01*
X114791689Y-80338210D01*
X114853664Y-80320675D01*
X114884868Y-80290705D01*
X114901029Y-80248757D01*
X114906727Y-80197893D01*
X114906727Y-78733535D01*
X114901194Y-78702859D01*
X114884257Y-78674916D01*
X114854768Y-78651909D01*
X114793643Y-78625702D01*
X114732710Y-78601853D01*
X114711577Y-78588332D01*
X114697778Y-78557558D01*
X114706054Y-78527964D01*
X114731136Y-78509249D01*
X114782286Y-78501504D01*
X114853482Y-78507000D01*
X114924313Y-78512495D01*
X114992701Y-78499184D01*
X115059623Y-78485872D01*
X115088728Y-78490791D01*
X115110792Y-78504801D01*
X115124091Y-78531528D01*
X115130454Y-78598957D01*
X115130454Y-80239414D01*
G37*
G36*
X115816288Y-80218653D02*
G01*
X115821608Y-80264270D01*
X115836682Y-80301574D01*
X115865849Y-80328316D01*
X115924609Y-80345293D01*
X115984483Y-80358083D01*
X116005942Y-80370939D01*
X116019864Y-80412094D01*
X116013793Y-80442161D01*
X115998493Y-80455447D01*
X115917648Y-80463263D01*
X115809449Y-80455447D01*
X115703081Y-80447631D01*
X115589875Y-80455447D01*
X115476302Y-80463263D01*
X115421578Y-80454521D01*
X115394190Y-80433041D01*
X115384955Y-80398294D01*
X115388720Y-80377184D01*
X115399609Y-80360803D01*
X115421651Y-80349731D01*
X115483140Y-80338699D01*
X115543605Y-80323148D01*
X115573632Y-80298032D01*
X115589747Y-80262530D01*
X115595370Y-80219508D01*
X115592561Y-80008116D01*
X115589875Y-79796724D01*
X115580203Y-79739604D01*
X115553482Y-79700004D01*
X115511482Y-79675204D01*
X115450412Y-79666054D01*
X115383477Y-79680586D01*
X115297027Y-79732488D01*
X115243123Y-79767152D01*
X115212642Y-79775475D01*
X115181134Y-79758988D01*
X115165014Y-79725527D01*
X115176805Y-79682708D01*
X115219040Y-79632018D01*
X115309117Y-79569212D01*
X115408650Y-79518942D01*
X115483927Y-79493555D01*
X115540538Y-79486291D01*
X115622323Y-79498475D01*
X115702471Y-79536117D01*
X115768347Y-79593044D01*
X115806518Y-79659215D01*
X115815431Y-79711557D01*
X115820440Y-79885750D01*
X115818364Y-80082854D01*
X115816288Y-80218653D01*
G37*
G36*
X116400272Y-79032976D02*
G01*
X116460229Y-79044404D01*
X116511647Y-79078894D01*
X116546943Y-79129255D01*
X116558542Y-79187582D01*
X116547180Y-79239325D01*
X116512258Y-79283203D01*
X116462074Y-79312320D01*
X116402959Y-79322160D01*
X116344277Y-79311370D01*
X116294393Y-79279051D01*
X116260115Y-79231377D01*
X116248842Y-79175614D01*
X116260011Y-79122182D01*
X116294393Y-79075475D01*
X116343856Y-79043514D01*
X116400272Y-79032976D01*
G37*
G36*
X116513479Y-80214868D02*
G01*
X116520611Y-80272420D01*
X116536926Y-80299009D01*
X116563559Y-80314599D01*
X116601284Y-80324533D01*
X116660391Y-80343217D01*
X116673394Y-80360525D01*
X116678709Y-80394875D01*
X116670730Y-80422495D01*
X116646206Y-80440218D01*
X116595545Y-80447631D01*
X116492840Y-80439815D01*
X116391968Y-80432000D01*
X116296713Y-80443723D01*
X116202069Y-80455447D01*
X116171310Y-80450288D01*
X116145405Y-80435053D01*
X116127724Y-80411800D01*
X116121713Y-80381808D01*
X116134903Y-80345904D01*
X116153597Y-80333902D01*
X116198650Y-80322457D01*
X116243748Y-80309341D01*
X116268137Y-80290949D01*
X116280826Y-80258548D01*
X116287066Y-80175178D01*
X116287066Y-79715269D01*
X116280086Y-79665085D01*
X116263496Y-79640531D01*
X116236244Y-79625437D01*
X116191933Y-79612809D01*
X116149410Y-79599938D01*
X116131483Y-79586797D01*
X116119027Y-79546986D01*
X116124264Y-79522712D01*
X116140032Y-79503266D01*
X116162871Y-79490597D01*
X116189857Y-79486291D01*
X116256535Y-79498015D01*
X116319672Y-79509739D01*
X116390258Y-79501923D01*
X116461699Y-79494107D01*
X116490079Y-79502456D01*
X116508441Y-79528326D01*
X116516166Y-79582157D01*
X116514822Y-79618304D01*
X116513479Y-79648713D01*
X116513479Y-80214868D01*
G37*
G36*
X117218486Y-80232331D02*
G01*
X117223198Y-80265501D01*
X117236682Y-80292293D01*
X117262518Y-80311523D01*
X117320457Y-80327708D01*
X117378675Y-80342536D01*
X117401302Y-80357383D01*
X117412614Y-80378155D01*
X117416567Y-80404278D01*
X117409355Y-80431723D01*
X117388070Y-80448603D01*
X117345736Y-80455447D01*
X117223859Y-80443723D01*
X117102593Y-80432000D01*
X116990852Y-80443723D01*
X116878500Y-80455447D01*
X116827774Y-80451074D01*
X116805471Y-80441647D01*
X116792869Y-80425569D01*
X116788496Y-80403545D01*
X116802418Y-80362879D01*
X116824002Y-80349988D01*
X116885094Y-80336134D01*
X116945298Y-80318445D01*
X116974365Y-80292659D01*
X116989481Y-80257102D01*
X116994759Y-80214379D01*
X116994759Y-78751120D01*
X116989300Y-78706970D01*
X116973632Y-78670032D01*
X116943960Y-78641763D01*
X116884362Y-78618985D01*
X116823980Y-78599668D01*
X116802296Y-78584669D01*
X116788496Y-78544124D01*
X116794222Y-78523584D01*
X116812432Y-78507244D01*
X116862136Y-78493688D01*
X116927348Y-78501504D01*
X116990485Y-78509320D01*
X117059728Y-78501504D01*
X117129826Y-78493688D01*
X117170784Y-78500318D01*
X117196870Y-78517990D01*
X117212116Y-78547831D01*
X117218486Y-78603353D01*
X117218486Y-80232331D01*
G37*
G36*
X117756431Y-78462425D02*
G01*
X117788843Y-78469252D01*
X117812607Y-78489170D01*
X117827909Y-78516962D01*
X117832757Y-78544735D01*
X117822181Y-78586988D01*
X117787572Y-78627533D01*
X117769865Y-78649133D01*
X117753866Y-78687861D01*
X117744018Y-78741525D01*
X117734937Y-78858465D01*
X117723970Y-78973415D01*
X117711612Y-79013315D01*
X117692440Y-79034813D01*
X117674365Y-79040792D01*
X117655037Y-79032760D01*
X117644079Y-79004644D01*
X117639072Y-78819630D01*
X117635316Y-78745012D01*
X117624662Y-78679923D01*
X117610374Y-78591385D01*
X117624136Y-78537378D01*
X117666427Y-78496253D01*
X117720861Y-78469463D01*
X117756431Y-78462425D01*
G37*
G36*
X118148074Y-79661169D02*
G01*
X118154552Y-79690014D01*
X118176651Y-79722840D01*
X118222580Y-79757855D01*
X118363985Y-79837635D01*
X118467199Y-79898723D01*
X118535973Y-79953087D01*
X118578552Y-80001644D01*
X118620807Y-80085841D01*
X118634484Y-80172736D01*
X118621376Y-80260229D01*
X118583198Y-80333398D01*
X118517614Y-80395974D01*
X118435927Y-80440573D01*
X118336956Y-80468800D01*
X118216584Y-80478894D01*
X118115716Y-80467931D01*
X118012642Y-80434076D01*
X117948448Y-80398644D01*
X117918967Y-80368691D01*
X117910792Y-80342118D01*
X117905297Y-80249428D01*
X117899801Y-80160524D01*
X117907800Y-80118713D01*
X117928686Y-80096237D01*
X117965136Y-80088106D01*
X117983326Y-80091952D01*
X118000429Y-80104103D01*
X118016451Y-80129299D01*
X118049034Y-80205953D01*
X118087770Y-80281938D01*
X118127924Y-80322823D01*
X118176708Y-80346022D01*
X118231605Y-80353842D01*
X118297397Y-80342080D01*
X118351773Y-80307314D01*
X118388632Y-80254725D01*
X118401232Y-80187757D01*
X118393116Y-80142237D01*
X118367771Y-80098242D01*
X118317531Y-80056842D01*
X118181902Y-79984058D01*
X118082279Y-79930199D01*
X118019314Y-79883408D01*
X117983088Y-79842642D01*
X117948204Y-79770179D01*
X117936682Y-79692310D01*
X117947464Y-79625609D01*
X117979795Y-79566402D01*
X118037066Y-79512181D01*
X118107002Y-79471982D01*
X118183954Y-79447720D01*
X118269829Y-79439397D01*
X118378462Y-79448880D01*
X118485251Y-79477498D01*
X118552377Y-79508815D01*
X118582529Y-79535965D01*
X118590764Y-79560541D01*
X118596260Y-79623678D01*
X118601755Y-79684494D01*
X118597873Y-79712626D01*
X118586490Y-79737006D01*
X118568691Y-79754345D01*
X118547289Y-79759843D01*
X118517564Y-79755169D01*
X118500150Y-79743113D01*
X118475482Y-79686937D01*
X118460830Y-79650757D01*
X118440555Y-79624777D01*
X118376319Y-79583256D01*
X118334285Y-79569280D01*
X118286316Y-79564449D01*
X118238753Y-79572022D01*
X118192526Y-79595468D01*
X118157865Y-79629423D01*
X118148074Y-79661169D01*
G37*
G36*
X120141096Y-78952621D02*
G01*
X120114305Y-78901072D01*
X120103605Y-78892293D01*
X120090824Y-78904181D01*
X120058175Y-78977045D01*
X119765695Y-79643584D01*
X119512903Y-80205098D01*
X119502279Y-80248451D01*
X119517055Y-80282767D01*
X119538111Y-80296245D01*
X119590695Y-80314519D01*
X119643203Y-80333309D01*
X119665311Y-80348468D01*
X119677380Y-80367267D01*
X119681309Y-80388036D01*
X119672235Y-80424741D01*
X119646122Y-80446720D01*
X119595457Y-80455447D01*
X119501424Y-80443723D01*
X119378203Y-80432000D01*
X119274522Y-80439815D01*
X119196487Y-80447631D01*
X119163288Y-80443063D01*
X119137868Y-80430290D01*
X119120161Y-80410689D01*
X119114665Y-80389013D01*
X119119112Y-80356031D01*
X119129564Y-80340164D01*
X119182198Y-80322579D01*
X119248923Y-80304467D01*
X119295516Y-80277923D01*
X119326790Y-80243810D01*
X119378846Y-80144179D01*
X119533175Y-79804051D01*
X119863758Y-79065827D01*
X120019951Y-78714240D01*
X120047445Y-78631810D01*
X120054634Y-78580761D01*
X120043032Y-78521776D01*
X120031431Y-78459128D01*
X120042776Y-78426645D01*
X120077715Y-78415531D01*
X120122413Y-78422201D01*
X120160016Y-78441664D01*
X120192387Y-78475126D01*
X120236392Y-78548721D01*
X120306692Y-78697387D01*
X120685147Y-79551260D01*
X120945876Y-80127673D01*
X121000653Y-80226524D01*
X121034536Y-80269334D01*
X121071959Y-80296474D01*
X121117334Y-80315862D01*
X121161406Y-80332854D01*
X121184501Y-80347858D01*
X121198007Y-80368747D01*
X121203308Y-80404644D01*
X121195132Y-80430653D01*
X121169035Y-80447998D01*
X121113304Y-80455447D01*
X121008524Y-80443723D01*
X120857826Y-80432000D01*
X120701633Y-80443723D01*
X120590014Y-80455447D01*
X120545475Y-80450713D01*
X120513688Y-80438106D01*
X120492000Y-80417221D01*
X120484990Y-80390112D01*
X120489438Y-80366219D01*
X120502453Y-80347369D01*
X120527432Y-80334788D01*
X120591602Y-80323800D01*
X120655500Y-80311247D01*
X120683315Y-80294369D01*
X120698381Y-80269256D01*
X120703587Y-80237826D01*
X120691041Y-80186171D01*
X120626162Y-80029609D01*
X120552236Y-79878102D01*
X120530663Y-79848381D01*
X120507992Y-79841280D01*
X120458856Y-79838001D01*
X119848249Y-79838001D01*
X119813207Y-79832215D01*
X119781326Y-79814676D01*
X119758543Y-79788571D01*
X119751406Y-79759477D01*
X119757058Y-79736711D01*
X119775220Y-79716002D01*
X119800616Y-79701979D01*
X119829076Y-79697317D01*
X120416602Y-79697317D01*
X120454285Y-79692472D01*
X120461787Y-79683517D01*
X120443102Y-79631982D01*
X120141096Y-78952621D01*
G37*
G36*
X121632443Y-80232331D02*
G01*
X121637155Y-80265501D01*
X121650639Y-80292293D01*
X121676475Y-80311523D01*
X121734414Y-80327708D01*
X121792632Y-80342536D01*
X121815258Y-80357383D01*
X121826570Y-80378155D01*
X121830524Y-80404278D01*
X121823312Y-80431723D01*
X121802027Y-80448603D01*
X121759693Y-80455447D01*
X121637816Y-80443723D01*
X121516549Y-80432000D01*
X121404808Y-80443723D01*
X121292457Y-80455447D01*
X121241730Y-80451074D01*
X121219428Y-80441647D01*
X121206826Y-80425569D01*
X121202453Y-80403545D01*
X121216375Y-80362879D01*
X121237958Y-80349988D01*
X121299051Y-80336134D01*
X121359255Y-80318445D01*
X121388322Y-80292659D01*
X121403438Y-80257102D01*
X121408716Y-80214379D01*
X121408716Y-78751120D01*
X121403257Y-78706970D01*
X121387589Y-78670032D01*
X121357917Y-78641763D01*
X121298318Y-78618985D01*
X121237937Y-78599668D01*
X121216253Y-78584669D01*
X121202453Y-78544124D01*
X121208179Y-78523584D01*
X121226389Y-78507244D01*
X121276092Y-78493688D01*
X121341305Y-78501504D01*
X121404442Y-78509320D01*
X121473685Y-78501504D01*
X121543782Y-78493688D01*
X121584741Y-78500318D01*
X121610827Y-78517990D01*
X121626073Y-78547831D01*
X121632443Y-78603353D01*
X121632443Y-80232331D01*
G37*
G36*
X122972115Y-80197893D02*
G01*
X122984999Y-80252443D01*
X123024492Y-80295971D01*
X123100464Y-80330517D01*
X123150778Y-80354575D01*
X123162673Y-80372312D01*
X123167509Y-80405743D01*
X123162240Y-80424403D01*
X123144916Y-80441036D01*
X123096678Y-80455447D01*
X123025726Y-80443723D01*
X122954529Y-80432000D01*
X122875761Y-80443723D01*
X122811159Y-80455447D01*
X122770859Y-80440792D01*
X122755519Y-80425079D01*
X122751197Y-80410750D01*
X122748253Y-80396549D01*
X122741427Y-80392921D01*
X122718957Y-80401591D01*
X122612193Y-80453371D01*
X122500951Y-80484166D01*
X122383489Y-80494526D01*
X122296595Y-80484292D01*
X122192491Y-80450318D01*
X122126489Y-80415266D01*
X122070556Y-80370067D01*
X122023598Y-80314030D01*
X121989143Y-80249872D01*
X121967666Y-80174824D01*
X121960094Y-80086396D01*
X121974502Y-79996364D01*
X122018461Y-79912403D01*
X122097237Y-79831406D01*
X122194199Y-79771436D01*
X122310304Y-79734033D01*
X122450412Y-79720764D01*
X122524450Y-79730446D01*
X122611979Y-79762530D01*
X122666954Y-79795235D01*
X122692884Y-79823697D01*
X122700272Y-79849725D01*
X122695514Y-79870022D01*
X122681099Y-79885750D01*
X122634937Y-79899062D01*
X122564229Y-79872439D01*
X122511336Y-79852339D01*
X122458594Y-79845817D01*
X122387472Y-79853523D01*
X122327242Y-79875578D01*
X122275534Y-79911762D01*
X122235690Y-79959907D01*
X122211498Y-80017718D01*
X122202994Y-80088106D01*
X122212963Y-80169604D01*
X122240899Y-80233907D01*
X122286403Y-80285087D01*
X122345039Y-80323361D01*
X122408703Y-80346107D01*
X122479110Y-80353842D01*
X122542530Y-80346700D01*
X122602444Y-80325304D01*
X122660217Y-80288629D01*
X122706323Y-80240208D01*
X122733582Y-80183305D01*
X122743015Y-80115094D01*
X122743015Y-79741525D01*
X122729112Y-79666121D01*
X122688793Y-79607924D01*
X122627293Y-79570141D01*
X122543346Y-79556633D01*
X122467086Y-79564633D01*
X122391304Y-79589027D01*
X122314613Y-79631371D01*
X122260513Y-79658238D01*
X122228395Y-79653649D01*
X122201895Y-79640408D01*
X122183404Y-79619554D01*
X122177348Y-79593514D01*
X122188213Y-79554671D01*
X122224915Y-79516722D01*
X122301180Y-79478109D01*
X122428958Y-79443482D01*
X122570579Y-79431581D01*
X122687663Y-79442614D01*
X122783146Y-79473501D01*
X122861473Y-79522683D01*
X122924399Y-79589281D01*
X122960189Y-79660719D01*
X122972115Y-79739693D01*
X122972115Y-80197893D01*
G37*
G36*
X123666863Y-79771689D02*
G01*
X123671870Y-79806738D01*
X123729634Y-79678266D01*
X123790959Y-79561246D01*
X123843573Y-79494595D01*
X123903620Y-79452305D01*
X123962153Y-79439397D01*
X124006285Y-79444283D01*
X124035060Y-79456860D01*
X124054528Y-79476465D01*
X124060339Y-79497038D01*
X124055770Y-79531609D01*
X124043364Y-79556389D01*
X123984990Y-79610489D01*
X123879227Y-79705098D01*
X123796731Y-79810489D01*
X123735496Y-79927882D01*
X123689658Y-80055255D01*
X123665721Y-80155555D01*
X123658681Y-80233919D01*
X123663229Y-80283683D01*
X123673458Y-80307802D01*
X123695122Y-80323444D01*
X123748318Y-80340531D01*
X123802242Y-80357291D01*
X123826965Y-80372893D01*
X123841129Y-80393243D01*
X123845771Y-80416612D01*
X123839960Y-80442633D01*
X123823894Y-80457548D01*
X123793992Y-80463263D01*
X123687746Y-80451539D01*
X123542666Y-80439815D01*
X123437886Y-80451539D01*
X123369254Y-80463263D01*
X123332252Y-80458795D01*
X123305140Y-80446654D01*
X123286515Y-80427318D01*
X123280593Y-80404034D01*
X123294393Y-80369473D01*
X123314740Y-80355663D01*
X123368277Y-80334547D01*
X123421201Y-80312440D01*
X123441183Y-80296078D01*
X123449551Y-80266963D01*
X123454128Y-80174079D01*
X123454128Y-79770834D01*
X123449576Y-79735251D01*
X123436298Y-79704400D01*
X123411716Y-79679910D01*
X123363392Y-79658605D01*
X123314509Y-79640261D01*
X123297080Y-79627464D01*
X123286089Y-79594857D01*
X123293311Y-79565499D01*
X123314058Y-79547956D01*
X123354233Y-79541002D01*
X123413584Y-79541002D01*
X123471713Y-79541002D01*
X123516043Y-79541002D01*
X123589194Y-79541002D01*
X123619284Y-79548701D01*
X123642516Y-79572580D01*
X123659672Y-79619913D01*
X123666863Y-79704034D01*
X123666863Y-79771689D01*
G37*
G36*
X124955733Y-79718200D02*
G01*
X124949630Y-79692810D01*
X124930332Y-79670450D01*
X124903597Y-79655345D01*
X124874889Y-79650422D01*
X124832513Y-79657319D01*
X124780753Y-79680811D01*
X124716375Y-79726870D01*
X124662453Y-79766477D01*
X124634554Y-79775475D01*
X124604602Y-79766348D01*
X124595108Y-79740304D01*
X124605799Y-79696670D01*
X124644000Y-79642586D01*
X124724191Y-79573120D01*
X124813863Y-79517229D01*
X124890406Y-79487525D01*
X124956954Y-79478475D01*
X125013809Y-79485514D01*
X125065182Y-79506337D01*
X125112659Y-79541856D01*
X125150277Y-79587405D01*
X125172108Y-79636710D01*
X125179459Y-79691455D01*
X125176773Y-80243688D01*
X125183748Y-80281257D01*
X125204250Y-80311344D01*
X125234504Y-80331518D01*
X125269829Y-80338210D01*
X125312786Y-80346037D01*
X125335427Y-80366131D01*
X125343468Y-80400492D01*
X125335709Y-80429949D01*
X125312784Y-80448087D01*
X125267143Y-80455447D01*
X125185443Y-80443723D01*
X125063566Y-80432000D01*
X124925813Y-80443723D01*
X124853151Y-80455447D01*
X124828699Y-80450953D01*
X124807355Y-80437373D01*
X124792684Y-80417030D01*
X124787694Y-80391211D01*
X124800066Y-80357833D01*
X124839473Y-80346026D01*
X124880221Y-80339456D01*
X124918852Y-80319281D01*
X124946111Y-80286713D01*
X124955733Y-80239048D01*
X124955733Y-79718200D01*
G37*
G36*
X125580140Y-79718566D02*
G01*
X125574026Y-79692946D01*
X125554739Y-79670450D01*
X125528004Y-79655345D01*
X125499295Y-79650422D01*
X125444769Y-79662742D01*
X125365939Y-79709041D01*
X125290697Y-79757489D01*
X125258960Y-79767659D01*
X125226965Y-79757279D01*
X125212676Y-79732488D01*
X125222342Y-79694033D01*
X125257917Y-79643009D01*
X125334187Y-79573608D01*
X125418864Y-79519118D01*
X125500602Y-79488404D01*
X125581361Y-79478475D01*
X125651656Y-79486869D01*
X125706590Y-79510261D01*
X125749805Y-79548099D01*
X125782983Y-79602673D01*
X125794892Y-79677677D01*
X125802523Y-80010070D01*
X125799714Y-80243078D01*
X125805753Y-80281260D01*
X125821940Y-80306214D01*
X125848431Y-80323320D01*
X125892160Y-80336745D01*
X125934590Y-80349387D01*
X125951267Y-80361535D01*
X125962380Y-80397073D01*
X125954733Y-80429131D01*
X125933036Y-80448034D01*
X125891549Y-80455447D01*
X125809117Y-80443723D01*
X125686508Y-80432000D01*
X125576842Y-80443723D01*
X125477558Y-80455447D01*
X125453051Y-80451115D01*
X125431762Y-80438106D01*
X125417059Y-80418419D01*
X125412101Y-80393653D01*
X125418665Y-80367651D01*
X125438226Y-80350087D01*
X125476459Y-80340164D01*
X125533556Y-80327430D01*
X125560478Y-80307924D01*
X125574983Y-80279346D01*
X125580140Y-80242467D01*
X125580140Y-79718566D01*
G37*
G36*
X124334135Y-79725893D02*
G01*
X124326697Y-79683178D01*
X124305925Y-79652987D01*
X124276989Y-79632821D01*
X124251947Y-79626975D01*
X124200140Y-79619005D01*
X124174583Y-79599653D01*
X124166096Y-79568845D01*
X124173650Y-79530438D01*
X124193571Y-79509557D01*
X124228744Y-79501923D01*
X124292614Y-79509739D01*
X124364055Y-79517554D01*
X124431099Y-79509739D01*
X124478727Y-79501923D01*
X124512993Y-79507568D01*
X124530872Y-79521706D01*
X124540164Y-79554919D01*
X124549557Y-79673381D01*
X124555053Y-79979173D01*
X124552366Y-80217188D01*
X124559449Y-80294124D01*
X124590956Y-80323434D01*
X124649575Y-80342118D01*
X124700743Y-80356528D01*
X124712850Y-80371072D01*
X124717718Y-80400004D01*
X124710080Y-80429965D01*
X124687818Y-80448150D01*
X124644079Y-80455447D01*
X124541131Y-80443723D01*
X124439159Y-80432000D01*
X124339020Y-80443723D01*
X124249260Y-80455447D01*
X124200048Y-80448394D01*
X124176408Y-80431633D01*
X124168782Y-80405743D01*
X124173361Y-80373614D01*
X124184292Y-80357872D01*
X124238147Y-80341385D01*
X124273894Y-80333340D01*
X124299330Y-80320503D01*
X124318105Y-80301655D01*
X124328151Y-80278127D01*
X124334135Y-80168584D01*
X124334135Y-79725893D01*
G37*
G36*
X127506117Y-80252237D02*
G01*
X127528212Y-80258578D01*
X127542349Y-80278014D01*
X127548249Y-80318060D01*
X127539010Y-80341137D01*
X127500756Y-80374400D01*
X127408664Y-80423451D01*
X127314020Y-80458658D01*
X127217002Y-80479667D01*
X127116672Y-80486710D01*
X126993745Y-80476871D01*
X126882590Y-80448253D01*
X126781100Y-80401332D01*
X126687659Y-80335401D01*
X126608424Y-80253446D01*
X126553375Y-80163801D01*
X126520243Y-80064729D01*
X126508873Y-79953528D01*
X126519210Y-79855515D01*
X126549923Y-79764200D01*
X126601978Y-79677562D01*
X126678133Y-79594247D01*
X126767238Y-79526279D01*
X126863235Y-79478357D01*
X126967663Y-79449334D01*
X127082600Y-79439397D01*
X127212148Y-79451168D01*
X127370318Y-79490321D01*
X127478018Y-79532097D01*
X127521556Y-79562465D01*
X127531884Y-79585087D01*
X127540066Y-79705377D01*
X127548249Y-79758866D01*
X127541053Y-79795272D01*
X127522043Y-79815105D01*
X127488409Y-79822369D01*
X127463320Y-79815138D01*
X127440364Y-79790987D01*
X127418922Y-79740670D01*
X127382293Y-79667947D01*
X127319393Y-79611710D01*
X127237762Y-79576935D01*
X127133158Y-79564449D01*
X127043982Y-79575626D01*
X126958372Y-79609511D01*
X126874138Y-79668618D01*
X126822867Y-79724525D01*
X126785839Y-79790714D01*
X126762668Y-79869252D01*
X126754459Y-79963053D01*
X126763053Y-80047747D01*
X126787991Y-80122507D01*
X126829250Y-80189478D01*
X126888427Y-80250039D01*
X126982343Y-80313839D01*
X127074511Y-80349925D01*
X127167230Y-80361658D01*
X127276895Y-80348468D01*
X127334395Y-80329338D01*
X127404390Y-80293758D01*
X127471398Y-80260154D01*
X127506117Y-80252237D01*
G37*
G36*
X128066776Y-80232331D02*
G01*
X128071489Y-80265501D01*
X128084972Y-80292293D01*
X128110809Y-80311523D01*
X128168748Y-80327708D01*
X128226966Y-80342536D01*
X128249592Y-80357383D01*
X128260904Y-80378155D01*
X128264857Y-80404278D01*
X128257645Y-80431723D01*
X128236360Y-80448603D01*
X128194027Y-80455447D01*
X128072150Y-80443723D01*
X127950883Y-80432000D01*
X127839142Y-80443723D01*
X127726790Y-80455447D01*
X127676064Y-80451074D01*
X127653762Y-80441647D01*
X127641159Y-80425569D01*
X127636787Y-80403545D01*
X127650709Y-80362879D01*
X127672292Y-80349988D01*
X127733385Y-80336134D01*
X127793589Y-80318445D01*
X127822655Y-80292659D01*
X127837771Y-80257102D01*
X127843050Y-80214379D01*
X127843050Y-78751120D01*
X127837590Y-78706970D01*
X127821923Y-78670032D01*
X127792250Y-78641763D01*
X127732652Y-78618985D01*
X127672271Y-78599668D01*
X127650586Y-78584669D01*
X127636787Y-78544124D01*
X127642513Y-78523584D01*
X127660722Y-78507244D01*
X127710426Y-78493688D01*
X127775639Y-78501504D01*
X127838775Y-78509320D01*
X127908018Y-78501504D01*
X127978116Y-78493688D01*
X128019075Y-78500318D01*
X128045161Y-78517990D01*
X128060406Y-78547831D01*
X128066776Y-78603353D01*
X128066776Y-80232331D01*
G37*
G36*
X129091551Y-79449341D02*
G01*
X129193770Y-79478555D01*
X129288977Y-79527144D01*
X129378605Y-79596567D01*
X129455123Y-79680988D01*
X129507406Y-79768548D01*
X129538232Y-79860598D01*
X129548598Y-79959145D01*
X129537991Y-80071222D01*
X129507393Y-80169380D01*
X129457254Y-80256402D01*
X129386176Y-80334180D01*
X129301399Y-80395597D01*
X129202608Y-80440590D01*
X129087157Y-80468891D01*
X128951668Y-80478894D01*
X128847292Y-80469719D01*
X128749184Y-80442530D01*
X128655748Y-80396957D01*
X128565764Y-80331494D01*
X128489674Y-80251782D01*
X128436921Y-80165288D01*
X128405261Y-80070402D01*
X128394428Y-79964641D01*
X128395959Y-79948154D01*
X128642701Y-79948154D01*
X128654421Y-80069671D01*
X128686987Y-80166812D01*
X128738566Y-80244787D01*
X128808617Y-80305517D01*
X128888964Y-80341467D01*
X128983053Y-80353842D01*
X129081249Y-80340806D01*
X129162513Y-80303368D01*
X129230960Y-80240635D01*
X129281354Y-80160648D01*
X129312537Y-80066220D01*
X129323528Y-79953650D01*
X129311803Y-79843519D01*
X129278456Y-79751475D01*
X129224121Y-79673625D01*
X129151951Y-79612941D01*
X129069134Y-79576882D01*
X128972184Y-79564449D01*
X128872831Y-79577071D01*
X128793361Y-79612728D01*
X128729041Y-79671427D01*
X128682298Y-79747029D01*
X128653084Y-79837970D01*
X128642701Y-79948154D01*
X128395959Y-79948154D01*
X128403872Y-79862962D01*
X128431713Y-79768977D01*
X128478248Y-79680862D01*
X128545126Y-79597300D01*
X128625040Y-79530687D01*
X128721725Y-79481678D01*
X128838640Y-79450539D01*
X128980367Y-79439397D01*
X129091551Y-79449341D01*
G37*
G36*
X130616794Y-80252237D02*
G01*
X130638889Y-80258578D01*
X130653026Y-80278014D01*
X130658926Y-80318060D01*
X130649687Y-80341137D01*
X130611433Y-80374400D01*
X130519341Y-80423451D01*
X130424697Y-80458658D01*
X130327679Y-80479667D01*
X130227348Y-80486710D01*
X130104422Y-80476871D01*
X129993267Y-80448253D01*
X129891777Y-80401332D01*
X129798336Y-80335401D01*
X129719100Y-80253446D01*
X129664052Y-80163801D01*
X129630920Y-80064729D01*
X129619550Y-79953528D01*
X129629887Y-79855515D01*
X129660600Y-79764200D01*
X129712655Y-79677562D01*
X129788810Y-79594247D01*
X129877915Y-79526279D01*
X129973912Y-79478357D01*
X130078340Y-79449334D01*
X130193277Y-79439397D01*
X130322825Y-79451168D01*
X130480995Y-79490321D01*
X130588695Y-79532097D01*
X130632233Y-79562465D01*
X130642561Y-79585087D01*
X130650743Y-79705377D01*
X130658926Y-79758866D01*
X130651730Y-79795272D01*
X130632719Y-79815105D01*
X130599086Y-79822369D01*
X130573997Y-79815138D01*
X130551041Y-79790987D01*
X130529599Y-79740670D01*
X130492970Y-79667947D01*
X130430070Y-79611710D01*
X130348438Y-79576935D01*
X130243835Y-79564449D01*
X130154659Y-79575626D01*
X130069049Y-79609511D01*
X129984815Y-79668618D01*
X129933544Y-79724525D01*
X129896516Y-79790714D01*
X129873345Y-79869252D01*
X129865136Y-79963053D01*
X129873730Y-80047747D01*
X129898668Y-80122507D01*
X129939926Y-80189478D01*
X129999103Y-80250039D01*
X130093020Y-80313839D01*
X130185187Y-80349925D01*
X130277907Y-80361658D01*
X130387572Y-80348468D01*
X130445072Y-80329338D01*
X130515066Y-80293758D01*
X130582075Y-80260154D01*
X130616794Y-80252237D01*
G37*
G36*
X131839107Y-80265914D02*
G01*
X131871711Y-80290868D01*
X131911281Y-80299131D01*
X131935228Y-80291323D01*
X131970998Y-80260053D01*
X132006768Y-80228707D01*
X132030105Y-80220974D01*
X132050609Y-80225875D01*
X132069184Y-80241490D01*
X132081901Y-80262842D01*
X132085914Y-80284355D01*
X132078417Y-80327525D01*
X132054430Y-80372228D01*
X132009466Y-80420276D01*
X131931033Y-80471608D01*
X131862066Y-80486710D01*
X131797484Y-80473164D01*
X131711856Y-80424428D01*
X131619310Y-80342169D01*
X131458821Y-80163943D01*
X131346972Y-80042238D01*
X131315572Y-80022404D01*
X131280768Y-80048294D01*
X131223004Y-80102150D01*
X131188810Y-80145258D01*
X131185635Y-80238437D01*
X131190202Y-80271026D01*
X131203221Y-80297177D01*
X131228148Y-80315551D01*
X131284187Y-80329784D01*
X131340503Y-80342994D01*
X131362956Y-80357872D01*
X131374296Y-80379005D01*
X131378221Y-80404889D01*
X131374680Y-80426358D01*
X131364787Y-80441891D01*
X131346880Y-80451245D01*
X131307390Y-80455447D01*
X131185513Y-80443723D01*
X131064247Y-80432000D01*
X130952505Y-80443723D01*
X130840154Y-80455447D01*
X130785250Y-80447474D01*
X130758746Y-80428452D01*
X130750150Y-80398905D01*
X130753968Y-80374427D01*
X130764805Y-80355551D01*
X130787050Y-80342756D01*
X130848214Y-80331005D01*
X130908230Y-80315550D01*
X130936630Y-80290827D01*
X130951258Y-80255799D01*
X130956413Y-80212914D01*
X130956413Y-78732069D01*
X130951495Y-78697460D01*
X130937362Y-78669177D01*
X130910538Y-78647766D01*
X130850168Y-78626801D01*
X130789458Y-78607625D01*
X130766026Y-78592240D01*
X130754186Y-78572214D01*
X130750150Y-78548032D01*
X130755965Y-78526876D01*
X130774697Y-78508953D01*
X130823789Y-78493688D01*
X130894620Y-78505412D01*
X130968503Y-78517136D01*
X131043242Y-78509320D01*
X131103814Y-78501504D01*
X131130063Y-78505514D01*
X131147533Y-78516281D01*
X131161227Y-78539462D01*
X131173789Y-78591019D01*
X131182826Y-78827324D01*
X131182826Y-79901993D01*
X131188647Y-79925523D01*
X131203465Y-79932157D01*
X131225116Y-79919458D01*
X131311420Y-79838978D01*
X131491916Y-79658482D01*
X131505715Y-79638699D01*
X131472865Y-79620258D01*
X131447940Y-79602567D01*
X131440136Y-79577394D01*
X131444026Y-79549811D01*
X131454180Y-79532331D01*
X131472847Y-79522059D01*
X131512310Y-79517554D01*
X131595108Y-79521462D01*
X131680349Y-79525370D01*
X131792823Y-79517554D01*
X131905785Y-79509739D01*
X131944590Y-79514287D01*
X131977226Y-79527324D01*
X132000643Y-79548720D01*
X132008123Y-79576417D01*
X131998652Y-79606212D01*
X131968267Y-79626185D01*
X131903099Y-79634791D01*
X131766540Y-79642097D01*
X131699522Y-79658238D01*
X131644565Y-79689839D01*
X131573615Y-79749829D01*
X131495213Y-79827376D01*
X131487519Y-79852289D01*
X131494523Y-79883803D01*
X131517806Y-79917380D01*
X131839107Y-80265914D01*
G37*
D11*
X115836667Y-111531200D02*
X115979524Y-111578819D01*
X115979524Y-111578819D02*
X116217619Y-111578819D01*
X116217619Y-111578819D02*
X116312857Y-111531200D01*
X116312857Y-111531200D02*
X116360476Y-111483580D01*
X116360476Y-111483580D02*
X116408095Y-111388342D01*
X116408095Y-111388342D02*
X116408095Y-111293104D01*
X116408095Y-111293104D02*
X116360476Y-111197866D01*
X116360476Y-111197866D02*
X116312857Y-111150247D01*
X116312857Y-111150247D02*
X116217619Y-111102628D01*
X116217619Y-111102628D02*
X116027143Y-111055009D01*
X116027143Y-111055009D02*
X115931905Y-111007390D01*
X115931905Y-111007390D02*
X115884286Y-110959771D01*
X115884286Y-110959771D02*
X115836667Y-110864533D01*
X115836667Y-110864533D02*
X115836667Y-110769295D01*
X115836667Y-110769295D02*
X115884286Y-110674057D01*
X115884286Y-110674057D02*
X115931905Y-110626438D01*
X115931905Y-110626438D02*
X116027143Y-110578819D01*
X116027143Y-110578819D02*
X116265238Y-110578819D01*
X116265238Y-110578819D02*
X116408095Y-110626438D01*
X116741429Y-110578819D02*
X116979524Y-111578819D01*
X116979524Y-111578819D02*
X117170000Y-110864533D01*
X117170000Y-110864533D02*
X117360476Y-111578819D01*
X117360476Y-111578819D02*
X117598572Y-110578819D01*
X118503333Y-111578819D02*
X117931905Y-111578819D01*
X118217619Y-111578819D02*
X118217619Y-110578819D01*
X118217619Y-110578819D02*
X118122381Y-110721676D01*
X118122381Y-110721676D02*
X118027143Y-110816914D01*
X118027143Y-110816914D02*
X117931905Y-110864533D01*
X184304819Y-116761904D02*
X183304819Y-116761904D01*
X183781009Y-116761904D02*
X183781009Y-116190476D01*
X184304819Y-116190476D02*
X183304819Y-116190476D01*
X183638152Y-115285714D02*
X184304819Y-115285714D01*
X183257200Y-115523809D02*
X183971485Y-115761904D01*
X183971485Y-115761904D02*
X183971485Y-115142857D01*
X154336667Y-111531200D02*
X154479524Y-111578819D01*
X154479524Y-111578819D02*
X154717619Y-111578819D01*
X154717619Y-111578819D02*
X154812857Y-111531200D01*
X154812857Y-111531200D02*
X154860476Y-111483580D01*
X154860476Y-111483580D02*
X154908095Y-111388342D01*
X154908095Y-111388342D02*
X154908095Y-111293104D01*
X154908095Y-111293104D02*
X154860476Y-111197866D01*
X154860476Y-111197866D02*
X154812857Y-111150247D01*
X154812857Y-111150247D02*
X154717619Y-111102628D01*
X154717619Y-111102628D02*
X154527143Y-111055009D01*
X154527143Y-111055009D02*
X154431905Y-111007390D01*
X154431905Y-111007390D02*
X154384286Y-110959771D01*
X154384286Y-110959771D02*
X154336667Y-110864533D01*
X154336667Y-110864533D02*
X154336667Y-110769295D01*
X154336667Y-110769295D02*
X154384286Y-110674057D01*
X154384286Y-110674057D02*
X154431905Y-110626438D01*
X154431905Y-110626438D02*
X154527143Y-110578819D01*
X154527143Y-110578819D02*
X154765238Y-110578819D01*
X154765238Y-110578819D02*
X154908095Y-110626438D01*
X155241429Y-110578819D02*
X155479524Y-111578819D01*
X155479524Y-111578819D02*
X155670000Y-110864533D01*
X155670000Y-110864533D02*
X155860476Y-111578819D01*
X155860476Y-111578819D02*
X156098572Y-110578819D01*
X156384286Y-110578819D02*
X157003333Y-110578819D01*
X157003333Y-110578819D02*
X156670000Y-110959771D01*
X156670000Y-110959771D02*
X156812857Y-110959771D01*
X156812857Y-110959771D02*
X156908095Y-111007390D01*
X156908095Y-111007390D02*
X156955714Y-111055009D01*
X156955714Y-111055009D02*
X157003333Y-111150247D01*
X157003333Y-111150247D02*
X157003333Y-111388342D01*
X157003333Y-111388342D02*
X156955714Y-111483580D01*
X156955714Y-111483580D02*
X156908095Y-111531200D01*
X156908095Y-111531200D02*
X156812857Y-111578819D01*
X156812857Y-111578819D02*
X156527143Y-111578819D01*
X156527143Y-111578819D02*
X156431905Y-111531200D01*
X156431905Y-111531200D02*
X156384286Y-111483580D01*
X100304819Y-116761904D02*
X99304819Y-116761904D01*
X99781009Y-116761904D02*
X99781009Y-116190476D01*
X100304819Y-116190476D02*
X99304819Y-116190476D01*
X99400057Y-115761904D02*
X99352438Y-115714285D01*
X99352438Y-115714285D02*
X99304819Y-115619047D01*
X99304819Y-115619047D02*
X99304819Y-115380952D01*
X99304819Y-115380952D02*
X99352438Y-115285714D01*
X99352438Y-115285714D02*
X99400057Y-115238095D01*
X99400057Y-115238095D02*
X99495295Y-115190476D01*
X99495295Y-115190476D02*
X99590533Y-115190476D01*
X99590533Y-115190476D02*
X99733390Y-115238095D01*
X99733390Y-115238095D02*
X100304819Y-115809523D01*
X100304819Y-115809523D02*
X100304819Y-115190476D01*
X184304819Y-77761904D02*
X183304819Y-77761904D01*
X183781009Y-77761904D02*
X183781009Y-77190476D01*
X184304819Y-77190476D02*
X183304819Y-77190476D01*
X183304819Y-76809523D02*
X183304819Y-76190476D01*
X183304819Y-76190476D02*
X183685771Y-76523809D01*
X183685771Y-76523809D02*
X183685771Y-76380952D01*
X183685771Y-76380952D02*
X183733390Y-76285714D01*
X183733390Y-76285714D02*
X183781009Y-76238095D01*
X183781009Y-76238095D02*
X183876247Y-76190476D01*
X183876247Y-76190476D02*
X184114342Y-76190476D01*
X184114342Y-76190476D02*
X184209580Y-76238095D01*
X184209580Y-76238095D02*
X184257200Y-76285714D01*
X184257200Y-76285714D02*
X184304819Y-76380952D01*
X184304819Y-76380952D02*
X184304819Y-76666666D01*
X184304819Y-76666666D02*
X184257200Y-76761904D01*
X184257200Y-76761904D02*
X184209580Y-76809523D01*
X135086667Y-111531200D02*
X135229524Y-111578819D01*
X135229524Y-111578819D02*
X135467619Y-111578819D01*
X135467619Y-111578819D02*
X135562857Y-111531200D01*
X135562857Y-111531200D02*
X135610476Y-111483580D01*
X135610476Y-111483580D02*
X135658095Y-111388342D01*
X135658095Y-111388342D02*
X135658095Y-111293104D01*
X135658095Y-111293104D02*
X135610476Y-111197866D01*
X135610476Y-111197866D02*
X135562857Y-111150247D01*
X135562857Y-111150247D02*
X135467619Y-111102628D01*
X135467619Y-111102628D02*
X135277143Y-111055009D01*
X135277143Y-111055009D02*
X135181905Y-111007390D01*
X135181905Y-111007390D02*
X135134286Y-110959771D01*
X135134286Y-110959771D02*
X135086667Y-110864533D01*
X135086667Y-110864533D02*
X135086667Y-110769295D01*
X135086667Y-110769295D02*
X135134286Y-110674057D01*
X135134286Y-110674057D02*
X135181905Y-110626438D01*
X135181905Y-110626438D02*
X135277143Y-110578819D01*
X135277143Y-110578819D02*
X135515238Y-110578819D01*
X135515238Y-110578819D02*
X135658095Y-110626438D01*
X135991429Y-110578819D02*
X136229524Y-111578819D01*
X136229524Y-111578819D02*
X136420000Y-110864533D01*
X136420000Y-110864533D02*
X136610476Y-111578819D01*
X136610476Y-111578819D02*
X136848572Y-110578819D01*
X137181905Y-110674057D02*
X137229524Y-110626438D01*
X137229524Y-110626438D02*
X137324762Y-110578819D01*
X137324762Y-110578819D02*
X137562857Y-110578819D01*
X137562857Y-110578819D02*
X137658095Y-110626438D01*
X137658095Y-110626438D02*
X137705714Y-110674057D01*
X137705714Y-110674057D02*
X137753333Y-110769295D01*
X137753333Y-110769295D02*
X137753333Y-110864533D01*
X137753333Y-110864533D02*
X137705714Y-111007390D01*
X137705714Y-111007390D02*
X137134286Y-111578819D01*
X137134286Y-111578819D02*
X137753333Y-111578819D01*
X173606667Y-111531200D02*
X173749524Y-111578819D01*
X173749524Y-111578819D02*
X173987619Y-111578819D01*
X173987619Y-111578819D02*
X174082857Y-111531200D01*
X174082857Y-111531200D02*
X174130476Y-111483580D01*
X174130476Y-111483580D02*
X174178095Y-111388342D01*
X174178095Y-111388342D02*
X174178095Y-111293104D01*
X174178095Y-111293104D02*
X174130476Y-111197866D01*
X174130476Y-111197866D02*
X174082857Y-111150247D01*
X174082857Y-111150247D02*
X173987619Y-111102628D01*
X173987619Y-111102628D02*
X173797143Y-111055009D01*
X173797143Y-111055009D02*
X173701905Y-111007390D01*
X173701905Y-111007390D02*
X173654286Y-110959771D01*
X173654286Y-110959771D02*
X173606667Y-110864533D01*
X173606667Y-110864533D02*
X173606667Y-110769295D01*
X173606667Y-110769295D02*
X173654286Y-110674057D01*
X173654286Y-110674057D02*
X173701905Y-110626438D01*
X173701905Y-110626438D02*
X173797143Y-110578819D01*
X173797143Y-110578819D02*
X174035238Y-110578819D01*
X174035238Y-110578819D02*
X174178095Y-110626438D01*
X174511429Y-110578819D02*
X174749524Y-111578819D01*
X174749524Y-111578819D02*
X174940000Y-110864533D01*
X174940000Y-110864533D02*
X175130476Y-111578819D01*
X175130476Y-111578819D02*
X175368572Y-110578819D01*
X176178095Y-110912152D02*
X176178095Y-111578819D01*
X175940000Y-110531200D02*
X175701905Y-111245485D01*
X175701905Y-111245485D02*
X176320952Y-111245485D01*
X100304819Y-77761904D02*
X99304819Y-77761904D01*
X99781009Y-77761904D02*
X99781009Y-77190476D01*
X100304819Y-77190476D02*
X99304819Y-77190476D01*
X100304819Y-76190476D02*
X100304819Y-76761904D01*
X100304819Y-76476190D02*
X99304819Y-76476190D01*
X99304819Y-76476190D02*
X99447676Y-76571428D01*
X99447676Y-76571428D02*
X99542914Y-76666666D01*
X99542914Y-76666666D02*
X99590533Y-76761904D01*
%TO.C,SW1*%
D12*
X110185000Y-96265000D02*
X124155000Y-96265000D01*
X110185000Y-110235000D02*
X110185000Y-96265000D01*
X124155000Y-96265000D02*
X124155000Y-110235000D01*
X124155000Y-110235000D02*
X110185000Y-110235000D01*
%TO.C,SW3*%
X148685000Y-96265000D02*
X162655000Y-96265000D01*
X148685000Y-110235000D02*
X148685000Y-96265000D01*
X162655000Y-96265000D02*
X162655000Y-110235000D01*
X162655000Y-110235000D02*
X148685000Y-110235000D01*
%TO.C,SW2*%
X129435000Y-96265000D02*
X143405000Y-96265000D01*
X129435000Y-110235000D02*
X129435000Y-96265000D01*
X143405000Y-96265000D02*
X143405000Y-110235000D01*
X143405000Y-110235000D02*
X129435000Y-110235000D01*
%TO.C,SW4*%
X167955000Y-96265000D02*
X181925000Y-96265000D01*
X167955000Y-110235000D02*
X167955000Y-96265000D01*
X181925000Y-96265000D02*
X181925000Y-110235000D01*
X181925000Y-110235000D02*
X167955000Y-110235000D01*
%TD*%
M02*
