%TF.GenerationSoftware,KiCad,Pcbnew,10.0.3*%
%TF.CreationDate,2026-09-18T19:13:17-04:00*%
%TF.ProjectId,Alarm clock,416c6172-6d20-4636-9c6f-636b2e6b6963,rev?*%
%TF.SameCoordinates,Original*%
%TF.FileFunction,Legend,Bot*%
%TF.FilePolarity,Positive*%
%FSLAX46Y46*%
G04 Gerber Fmt 4.6, Leading zero omitted, Abs format (unit mm)*
G04 Created by KiCad (PCBNEW 10.0.3) date 2026-09-18 19:13:17*
%MOMM*%
%LPD*%
G01*
G04 APERTURE LIST*
%ADD10C,0.150000*%
%ADD11C,0.101600*%
%ADD12C,0.120000*%
%ADD13C,0.127000*%
%ADD14C,0.100000*%
%ADD15C,0.504000*%
G04 APERTURE END LIST*
D10*
X183631009Y-84619047D02*
X183678628Y-84761904D01*
X183678628Y-84761904D02*
X183726247Y-84809523D01*
X183726247Y-84809523D02*
X183821485Y-84857142D01*
X183821485Y-84857142D02*
X183964342Y-84857142D01*
X183964342Y-84857142D02*
X184059580Y-84809523D01*
X184059580Y-84809523D02*
X184107200Y-84761904D01*
X184107200Y-84761904D02*
X184154819Y-84666666D01*
X184154819Y-84666666D02*
X184154819Y-84285714D01*
X184154819Y-84285714D02*
X183154819Y-84285714D01*
X183154819Y-84285714D02*
X183154819Y-84619047D01*
X183154819Y-84619047D02*
X183202438Y-84714285D01*
X183202438Y-84714285D02*
X183250057Y-84761904D01*
X183250057Y-84761904D02*
X183345295Y-84809523D01*
X183345295Y-84809523D02*
X183440533Y-84809523D01*
X183440533Y-84809523D02*
X183535771Y-84761904D01*
X183535771Y-84761904D02*
X183583390Y-84714285D01*
X183583390Y-84714285D02*
X183631009Y-84619047D01*
X183631009Y-84619047D02*
X183631009Y-84285714D01*
X183154819Y-85190476D02*
X183154819Y-85857142D01*
X183154819Y-85857142D02*
X184154819Y-85190476D01*
X184154819Y-85190476D02*
X184154819Y-85857142D01*
X184154819Y-86761904D02*
X184154819Y-86190476D01*
X184154819Y-86476190D02*
X183154819Y-86476190D01*
X183154819Y-86476190D02*
X183297676Y-86380952D01*
X183297676Y-86380952D02*
X183392914Y-86285714D01*
X183392914Y-86285714D02*
X183440533Y-86190476D01*
X179113866Y-88929048D02*
X179113866Y-89690953D01*
X179494819Y-89310000D02*
X178732914Y-89310000D01*
X129478819Y-89328666D02*
X130193104Y-89328666D01*
X130193104Y-89328666D02*
X130335961Y-89281047D01*
X130335961Y-89281047D02*
X130431200Y-89185809D01*
X130431200Y-89185809D02*
X130478819Y-89042952D01*
X130478819Y-89042952D02*
X130478819Y-88947714D01*
X130478819Y-90328666D02*
X130478819Y-89757238D01*
X130478819Y-90042952D02*
X129478819Y-90042952D01*
X129478819Y-90042952D02*
X129621676Y-89947714D01*
X129621676Y-89947714D02*
X129716914Y-89852476D01*
X129716914Y-89852476D02*
X129764533Y-89757238D01*
D11*
X156621520Y-83327309D02*
X156107473Y-83327309D01*
X156107473Y-83327309D02*
X156046997Y-83297071D01*
X156046997Y-83297071D02*
X156016759Y-83266833D01*
X156016759Y-83266833D02*
X155986520Y-83206357D01*
X155986520Y-83206357D02*
X155986520Y-83085404D01*
X155986520Y-83085404D02*
X156016759Y-83024928D01*
X156016759Y-83024928D02*
X156046997Y-82994690D01*
X156046997Y-82994690D02*
X156107473Y-82964452D01*
X156107473Y-82964452D02*
X156621520Y-82964452D01*
X155986520Y-82329452D02*
X155986520Y-82692309D01*
X155986520Y-82510881D02*
X156621520Y-82510881D01*
X156621520Y-82510881D02*
X156530806Y-82571357D01*
X156530806Y-82571357D02*
X156470330Y-82631833D01*
X156470330Y-82631833D02*
X156440092Y-82692309D01*
%TO.C,BZ1*%
D12*
X182600000Y-85500000D02*
G75*
G02*
X170400000Y-85500000I-6100000J0D01*
G01*
X170400000Y-85500000D02*
G75*
G02*
X182600000Y-85500000I6100000J0D01*
G01*
%TO.C,J1*%
X108144000Y-90992000D02*
X108144000Y-88332000D01*
X125984000Y-88332000D02*
X108144000Y-88332000D01*
X125984000Y-90992000D02*
X108144000Y-90992000D01*
X125984000Y-90992000D02*
X125984000Y-88332000D01*
X128584000Y-88332000D02*
X127254000Y-88332000D01*
X128584000Y-89662000D02*
X128584000Y-88332000D01*
%TO.C,U1*%
D13*
X137110000Y-91077500D02*
X137110000Y-73932500D01*
D14*
X139015000Y-72027500D02*
X152985000Y-72027500D01*
D13*
X139015000Y-72027500D02*
X152985000Y-72027500D01*
X141496000Y-71017500D02*
X141496000Y-72027500D01*
X149991272Y-70517500D02*
X141996000Y-70517500D01*
X150495000Y-72027500D02*
X150491272Y-71017228D01*
X152985000Y-92982500D02*
X139015000Y-92982500D01*
X154890000Y-91077500D02*
X154890000Y-73932500D01*
X137110000Y-73932500D02*
G75*
G02*
X139015000Y-72027500I1905000J0D01*
G01*
X139015000Y-92982500D02*
G75*
G02*
X137110000Y-91077500I1J1905001D01*
G01*
X141496000Y-71017500D02*
G75*
G02*
X141996000Y-70517500I500000J0D01*
G01*
X149991272Y-70517500D02*
G75*
G02*
X150491300Y-71017228I28J-500000D01*
G01*
X152985000Y-72027500D02*
G75*
G02*
X154890000Y-73932500I0J-1905000D01*
G01*
X154890000Y-91077500D02*
G75*
G02*
X152985000Y-92982500I-1905001J1D01*
G01*
D15*
X154109000Y-73198500D02*
G75*
G02*
X153605000Y-73198500I-252000J0D01*
G01*
X153605000Y-73198500D02*
G75*
G02*
X154109000Y-73198500I252000J0D01*
G01*
X155252000Y-72318500D02*
G75*
G02*
X154748000Y-72318500I-252000J0D01*
G01*
X154748000Y-72318500D02*
G75*
G02*
X155252000Y-72318500I252000J0D01*
G01*
%TD*%
M02*
