%TF.GenerationSoftware,KiCad,Pcbnew,10.0.3*%
%TF.CreationDate,2026-09-18T19:13:17-04:00*%
%TF.ProjectId,Alarm clock,416c6172-6d20-4636-9c6f-636b2e6b6963,rev?*%
%TF.SameCoordinates,Original*%
%TF.FileFunction,Copper,L1,Top*%
%TF.FilePolarity,Positive*%
%FSLAX46Y46*%
G04 Gerber Fmt 4.6, Leading zero omitted, Abs format (unit mm)*
G04 Created by KiCad (PCBNEW 10.0.3) date 2026-09-18 19:13:17*
%MOMM*%
%LPD*%
G01*
G04 APERTURE LIST*
%TA.AperFunction,ComponentPad*%
%ADD10C,2.200000*%
%TD*%
%TA.AperFunction,ComponentPad*%
%ADD11R,2.000000X2.000000*%
%TD*%
%TA.AperFunction,ComponentPad*%
%ADD12C,2.000000*%
%TD*%
%TA.AperFunction,ComponentPad*%
%ADD13R,1.700000X1.700000*%
%TD*%
%TA.AperFunction,ComponentPad*%
%ADD14C,1.700000*%
%TD*%
%TA.AperFunction,ComponentPad*%
%ADD15C,1.524000*%
%TD*%
%TA.AperFunction,Conductor*%
%ADD16C,0.200000*%
%TD*%
G04 APERTURE END LIST*
D10*
%TO.P,SW1,1,1_1*%
%TO.N,GND*%
X114630000Y-108330000D03*
%TO.P,SW1,2,2_2*%
%TO.N,Net-(U1-D0)*%
X120980000Y-105790000D03*
%TD*%
%TO.P,SW3,1,1_1*%
%TO.N,GND*%
X153130000Y-108330000D03*
%TO.P,SW3,2,2_2*%
%TO.N,Net-(U1-D2)*%
X159480000Y-105790000D03*
%TD*%
%TO.P,SW2,1,1_1*%
%TO.N,GND*%
X133880000Y-108330000D03*
%TO.P,SW2,2,2_2*%
%TO.N,Net-(U1-D1)*%
X140230000Y-105790000D03*
%TD*%
%TO.P,SW4,1,1_1*%
%TO.N,GND*%
X172400000Y-108330000D03*
%TO.P,SW4,2,2_2*%
%TO.N,Net-(U1-D3)*%
X178750000Y-105790000D03*
%TD*%
D11*
%TO.P,BZ1,1,+_1*%
%TO.N,Net-(BZ1-+)*%
X176500000Y-89300000D03*
D12*
%TO.P,BZ1,2,-_2*%
%TO.N,GND*%
X176500000Y-81700000D03*
%TD*%
D13*
%TO.P,J1,1,Pin_1_1*%
%TO.N,GND*%
X127254000Y-89662000D03*
D14*
%TO.P,J1,2,Pin_2_2*%
%TO.N,+3V3*%
X124714000Y-89662000D03*
%TO.P,J1,3,Pin_3_3*%
%TO.N,/SDA*%
X122174000Y-89662000D03*
%TO.P,J1,4,Pin_4_4*%
%TO.N,/SCL*%
X119634000Y-89662000D03*
%TO.P,J1,5,Pin_5_5*%
%TO.N,/RST*%
X117094000Y-89662000D03*
%TO.P,J1,6,Pin_6_6*%
%TO.N,/DC*%
X114554000Y-89662000D03*
%TO.P,J1,7,Pin_7_7*%
%TO.N,/CS*%
X112014000Y-89662000D03*
%TO.P,J1,8,Pin_8_8*%
%TO.N,/BL*%
X109474000Y-89662000D03*
%TD*%
D15*
%TO.P,U1,1,D0_1*%
%TO.N,Net-(U1-D0)*%
X153620000Y-74948500D03*
%TO.P,U1,2,D1_2*%
%TO.N,Net-(U1-D1)*%
X153620000Y-77488500D03*
%TO.P,U1,3,D2_3*%
%TO.N,Net-(U1-D2)*%
X153620000Y-80028500D03*
%TO.P,U1,4,D3_4*%
%TO.N,Net-(U1-D3)*%
X153620000Y-82568500D03*
%TO.P,U1,5,D4_5*%
%TO.N,/DC*%
X153620000Y-85108500D03*
%TO.P,U1,6,D5_6*%
%TO.N,/CS*%
X153620000Y-87648500D03*
%TO.P,U1,7,D6_7*%
%TO.N,/BL*%
X153620000Y-90188500D03*
%TO.P,U1,8,D7_8*%
%TO.N,Net-(BZ1-+)*%
X138380000Y-90188500D03*
%TO.P,U1,9,D8_9*%
%TO.N,/RST*%
X138380000Y-87648500D03*
%TO.P,U1,10,D9/BOOT_10*%
%TO.N,/SCL*%
X138380000Y-85108500D03*
%TO.P,U1,11,D10_11*%
%TO.N,/SDA*%
X138380000Y-82568500D03*
%TO.P,U1,12,3V3_OUT_12*%
%TO.N,+3V3*%
X138380000Y-80028500D03*
%TO.P,U1,13,GND_13*%
%TO.N,GND*%
X138380000Y-77488500D03*
%TO.P,U1,14,VBUS_14*%
%TO.N,unconnected-(U1-VBUS-Pad14)*%
X138380000Y-74948500D03*
%TD*%
%TO.N,/BL*%
D16*
X109474000Y-89662000D02*
X113284000Y-93472000D01*
X113284000Y-93472000D02*
X150336500Y-93472000D01*
X150336500Y-93472000D02*
X153620000Y-90188500D01*
%TO.N,/SCL*%
X137160000Y-85090000D02*
X137178500Y-85108500D01*
X137178500Y-85108500D02*
X138380000Y-85108500D01*
X119634000Y-89662000D02*
X121184000Y-91212000D01*
X136652000Y-85090000D02*
X137160000Y-85090000D01*
X130530000Y-91212000D02*
X136652000Y-85090000D01*
X121184000Y-91212000D02*
X130530000Y-91212000D01*
%TO.N,/RST*%
X134855500Y-87648500D02*
X138380000Y-87648500D01*
X117094000Y-89662000D02*
X119044000Y-91612000D01*
X119044000Y-91612000D02*
X130892000Y-91612000D01*
X130892000Y-91612000D02*
X134855500Y-87648500D01*
%TO.N,/SDA*%
X123324000Y-90812000D02*
X130136500Y-90812000D01*
X122174000Y-89662000D02*
X123324000Y-90812000D01*
X130136500Y-90812000D02*
X138380000Y-82568500D01*
%TO.N,+3V3*%
X134347500Y-80028500D02*
X138380000Y-80028500D01*
X124714000Y-89662000D02*
X134347500Y-80028500D01*
%TO.N,/CS*%
X112014000Y-89662000D02*
X115316000Y-92964000D01*
X115316000Y-92964000D02*
X148304500Y-92964000D01*
X148304500Y-92964000D02*
X153620000Y-87648500D01*
%TO.N,/DC*%
X116904000Y-92012000D02*
X146716500Y-92012000D01*
X146716500Y-92012000D02*
X153620000Y-85108500D01*
X114554000Y-89662000D02*
X116904000Y-92012000D01*
%TO.N,Net-(U1-D0)*%
X121499154Y-76010500D02*
X152558000Y-76010500D01*
X108324000Y-89185654D02*
X121499154Y-76010500D01*
X120980000Y-105790000D02*
X120980000Y-102794346D01*
X108324000Y-90138346D02*
X108324000Y-89185654D01*
X120980000Y-102794346D02*
X108324000Y-90138346D01*
X152558000Y-76010500D02*
X153620000Y-74948500D01*
%TO.N,Net-(U1-D1)*%
X154682000Y-90628395D02*
X154682000Y-78550500D01*
X147542395Y-97768000D02*
X154682000Y-90628395D01*
X140230000Y-105790000D02*
X140230000Y-97768000D01*
X140230000Y-97768000D02*
X147542395Y-97768000D01*
X154682000Y-78550500D02*
X153620000Y-77488500D01*
%TO.N,Net-(U1-D2)*%
X159480000Y-84426500D02*
X155082000Y-80028500D01*
X159480000Y-105790000D02*
X159480000Y-84426500D01*
%TO.N,Net-(U1-D3)*%
X152558000Y-81506500D02*
X153620000Y-82568500D01*
X152558000Y-77048605D02*
X152558000Y-81506500D01*
X178750000Y-105790000D02*
X178750000Y-101116605D01*
X153180105Y-76426500D02*
X152558000Y-77048605D01*
X178750000Y-101116605D02*
X154059895Y-76426500D01*
X154059895Y-76426500D02*
X153180105Y-76426500D01*
%TD*%
%TA.AperFunction,Conductor*%
%TO.N,GND*%
G36*
X151969518Y-76630685D02*
G01*
X152015273Y-76683489D01*
X152025217Y-76752647D01*
X152009865Y-76797002D01*
X151998424Y-76816817D01*
X151998423Y-76816819D01*
X151998423Y-76816820D01*
X151957499Y-76969548D01*
X151957499Y-76969550D01*
X151957499Y-77137651D01*
X151957500Y-77137664D01*
X151957500Y-81419830D01*
X151957499Y-81419848D01*
X151957499Y-81585554D01*
X151957498Y-81585554D01*
X151998423Y-81738285D01*
X152027358Y-81788400D01*
X152027359Y-81788404D01*
X152027360Y-81788404D01*
X152077479Y-81875214D01*
X152077481Y-81875217D01*
X152196349Y-81994085D01*
X152196355Y-81994090D01*
X152356237Y-82153972D01*
X152389722Y-82215295D01*
X152389160Y-82268022D01*
X152389349Y-82268052D01*
X152389146Y-82269331D01*
X152389133Y-82270587D01*
X152388587Y-82272860D01*
X152357500Y-82469139D01*
X152357500Y-82667860D01*
X152388587Y-82864137D01*
X152449993Y-83053129D01*
X152449994Y-83053132D01*
X152506009Y-83163065D01*
X152540213Y-83230194D01*
X152657019Y-83390964D01*
X152797536Y-83531481D01*
X152958306Y-83648287D01*
X153076832Y-83708679D01*
X153114780Y-83728015D01*
X153165576Y-83775990D01*
X153182371Y-83843811D01*
X153159833Y-83909946D01*
X153114780Y-83948985D01*
X152958305Y-84028713D01*
X152797533Y-84145521D01*
X152657021Y-84286033D01*
X152540213Y-84446805D01*
X152449994Y-84623867D01*
X152449993Y-84623870D01*
X152388587Y-84812862D01*
X152357500Y-85009139D01*
X152357500Y-85207860D01*
X152388586Y-85404136D01*
X152389131Y-85406403D01*
X152389086Y-85407290D01*
X152389349Y-85408948D01*
X152389000Y-85409003D01*
X152385638Y-85476185D01*
X152356237Y-85523026D01*
X146504084Y-91375181D01*
X146442761Y-91408666D01*
X146416403Y-91411500D01*
X139226211Y-91411500D01*
X139159172Y-91391815D01*
X139113417Y-91339011D01*
X139103473Y-91269853D01*
X139132498Y-91206297D01*
X139153322Y-91187184D01*
X139202464Y-91151481D01*
X139342981Y-91010964D01*
X139459787Y-90850194D01*
X139550005Y-90673132D01*
X139611413Y-90484136D01*
X139642500Y-90287861D01*
X139642500Y-90089139D01*
X139611413Y-89892864D01*
X139570936Y-89768287D01*
X139550006Y-89703870D01*
X139550005Y-89703867D01*
X139474516Y-89555713D01*
X139459787Y-89526806D01*
X139342981Y-89366036D01*
X139202464Y-89225519D01*
X139041694Y-89108713D01*
X138885218Y-89028984D01*
X138834423Y-88981010D01*
X138817628Y-88913189D01*
X138840165Y-88847054D01*
X138885218Y-88808015D01*
X139041694Y-88728287D01*
X139202464Y-88611481D01*
X139342981Y-88470964D01*
X139459787Y-88310194D01*
X139550005Y-88133132D01*
X139611413Y-87944136D01*
X139642500Y-87747861D01*
X139642500Y-87549139D01*
X139611413Y-87352864D01*
X139550005Y-87163868D01*
X139550005Y-87163867D01*
X139480937Y-87028315D01*
X139459787Y-86986806D01*
X139342981Y-86826036D01*
X139202464Y-86685519D01*
X139041694Y-86568713D01*
X138885218Y-86488984D01*
X138834423Y-86441010D01*
X138817628Y-86373189D01*
X138840165Y-86307054D01*
X138885218Y-86268015D01*
X139041694Y-86188287D01*
X139202464Y-86071481D01*
X139342981Y-85930964D01*
X139459787Y-85770194D01*
X139550005Y-85593132D01*
X139611413Y-85404136D01*
X139642500Y-85207861D01*
X139642500Y-85009139D01*
X139611413Y-84812864D01*
X139566695Y-84675235D01*
X139550006Y-84623870D01*
X139550005Y-84623867D01*
X139459786Y-84446805D01*
X139387597Y-84347445D01*
X139342981Y-84286036D01*
X139202464Y-84145519D01*
X139041694Y-84028713D01*
X138885218Y-83948984D01*
X138834423Y-83901010D01*
X138817628Y-83833189D01*
X138840165Y-83767054D01*
X138885218Y-83728015D01*
X139041694Y-83648287D01*
X139202464Y-83531481D01*
X139342981Y-83390964D01*
X139459787Y-83230194D01*
X139550005Y-83053132D01*
X139611413Y-82864136D01*
X139642500Y-82667861D01*
X139642500Y-82469139D01*
X139611413Y-82272864D01*
X139550005Y-82083868D01*
X139550005Y-82083867D01*
X139459786Y-81906805D01*
X139436836Y-81875217D01*
X139342981Y-81746036D01*
X139202464Y-81605519D01*
X139041694Y-81488713D01*
X138885218Y-81408984D01*
X138834423Y-81361010D01*
X138817628Y-81293189D01*
X138840165Y-81227054D01*
X138885218Y-81188015D01*
X139041694Y-81108287D01*
X139202464Y-80991481D01*
X139342981Y-80850964D01*
X139459787Y-80690194D01*
X139550005Y-80513132D01*
X139611413Y-80324136D01*
X139642500Y-80127861D01*
X139642500Y-79929139D01*
X139611413Y-79732864D01*
X139551342Y-79547983D01*
X139550006Y-79543870D01*
X139550005Y-79543867D01*
X139496554Y-79438965D01*
X139459787Y-79366806D01*
X139342981Y-79206036D01*
X139202464Y-79065519D01*
X139041694Y-78948713D01*
X138884667Y-78868703D01*
X138833872Y-78820729D01*
X138817077Y-78752908D01*
X138839614Y-78686773D01*
X138884669Y-78647734D01*
X139041422Y-78567864D01*
X139078716Y-78540768D01*
X138464095Y-77926147D01*
X138551571Y-77902708D01*
X138652930Y-77844189D01*
X138735689Y-77761430D01*
X138794208Y-77660071D01*
X138817647Y-77572594D01*
X139432268Y-78187215D01*
X139459362Y-78149925D01*
X139549542Y-77972937D01*
X139610924Y-77784023D01*
X139610924Y-77784020D01*
X139642000Y-77587821D01*
X139642000Y-77389178D01*
X139610924Y-77192979D01*
X139610924Y-77192976D01*
X139549542Y-77004062D01*
X139459358Y-76827066D01*
X139445423Y-76807887D01*
X139421942Y-76742081D01*
X139437767Y-76674026D01*
X139487872Y-76625331D01*
X139545740Y-76611000D01*
X151902479Y-76611000D01*
X151969518Y-76630685D01*
G37*
%TD.AperFunction*%
%TA.AperFunction,Conductor*%
G36*
X137260309Y-80648685D02*
G01*
X137297191Y-80686366D01*
X137297349Y-80686252D01*
X137298127Y-80687323D01*
X137299000Y-80688215D01*
X137300210Y-80690190D01*
X137300213Y-80690194D01*
X137417019Y-80850964D01*
X137557536Y-80991481D01*
X137718306Y-81108287D01*
X137836832Y-81168679D01*
X137874780Y-81188015D01*
X137925576Y-81235990D01*
X137942371Y-81303811D01*
X137919833Y-81369946D01*
X137874780Y-81408985D01*
X137718305Y-81488713D01*
X137557533Y-81605521D01*
X137417021Y-81746033D01*
X137300213Y-81906805D01*
X137209994Y-82083867D01*
X137209993Y-82083870D01*
X137148587Y-82272862D01*
X137117500Y-82469139D01*
X137117500Y-82667860D01*
X137148586Y-82864135D01*
X137149131Y-82866402D01*
X137149086Y-82867289D01*
X137149349Y-82868947D01*
X137149000Y-82869002D01*
X137145638Y-82936184D01*
X137116237Y-82983025D01*
X129924084Y-90175181D01*
X129862761Y-90208666D01*
X129836403Y-90211500D01*
X128728000Y-90211500D01*
X128660961Y-90191815D01*
X128615206Y-90139011D01*
X128604000Y-90087500D01*
X128604000Y-89912000D01*
X127687012Y-89912000D01*
X127719925Y-89854993D01*
X127754000Y-89727826D01*
X127754000Y-89596174D01*
X127719925Y-89469007D01*
X127687012Y-89412000D01*
X128604000Y-89412000D01*
X128604000Y-88764172D01*
X128603999Y-88764155D01*
X128597598Y-88704627D01*
X128597596Y-88704620D01*
X128547354Y-88569913D01*
X128547350Y-88569906D01*
X128461190Y-88454812D01*
X128461187Y-88454809D01*
X128346093Y-88368649D01*
X128346086Y-88368645D01*
X128211379Y-88318403D01*
X128211372Y-88318401D01*
X128151844Y-88312000D01*
X127504000Y-88312000D01*
X127504000Y-89228988D01*
X127446993Y-89196075D01*
X127319826Y-89162000D01*
X127188174Y-89162000D01*
X127061007Y-89196075D01*
X127004000Y-89228988D01*
X127004000Y-88272596D01*
X127012644Y-88243155D01*
X127019168Y-88213169D01*
X127022922Y-88208153D01*
X127023685Y-88205557D01*
X127040319Y-88184915D01*
X127052277Y-88172957D01*
X130412371Y-84812864D01*
X134559916Y-80665319D01*
X134621239Y-80631834D01*
X134647597Y-80629000D01*
X137193270Y-80629000D01*
X137260309Y-80648685D01*
G37*
%TD.AperFunction*%
%TA.AperFunction,Conductor*%
G36*
X137281299Y-76630685D02*
G01*
X137327054Y-76683489D01*
X137336998Y-76752647D01*
X137314577Y-76807887D01*
X137300641Y-76827066D01*
X137210457Y-77004062D01*
X137149075Y-77192976D01*
X137149075Y-77192979D01*
X137118000Y-77389178D01*
X137118000Y-77587821D01*
X137149075Y-77784020D01*
X137149075Y-77784023D01*
X137210457Y-77972937D01*
X137300641Y-78149932D01*
X137327730Y-78187215D01*
X137942352Y-77572593D01*
X137965792Y-77660071D01*
X138024311Y-77761430D01*
X138107070Y-77844189D01*
X138208429Y-77902708D01*
X138295905Y-77926147D01*
X137681283Y-78540768D01*
X137681283Y-78540769D01*
X137718567Y-78567858D01*
X137875331Y-78647734D01*
X137926127Y-78695709D01*
X137942922Y-78763530D01*
X137920384Y-78829665D01*
X137875331Y-78868704D01*
X137718305Y-78948713D01*
X137557533Y-79065521D01*
X137417021Y-79206033D01*
X137300210Y-79366809D01*
X137299000Y-79368785D01*
X137298343Y-79369378D01*
X137297349Y-79370748D01*
X137297061Y-79370539D01*
X137247190Y-79415663D01*
X137193270Y-79428000D01*
X134268440Y-79428000D01*
X134227519Y-79438964D01*
X134227519Y-79438965D01*
X134190251Y-79448951D01*
X134115714Y-79468923D01*
X134115709Y-79468926D01*
X133978790Y-79547975D01*
X133978782Y-79547981D01*
X133866978Y-79659786D01*
X125198522Y-88328241D01*
X125137199Y-88361726D01*
X125072523Y-88358491D01*
X125030245Y-88344754D01*
X124890272Y-88322584D01*
X124820287Y-88311500D01*
X124607713Y-88311500D01*
X124559042Y-88319208D01*
X124397760Y-88344753D01*
X124195585Y-88410444D01*
X124006179Y-88506951D01*
X123834213Y-88631890D01*
X123683890Y-88782213D01*
X123558949Y-88954182D01*
X123554484Y-88962946D01*
X123506509Y-89013742D01*
X123438688Y-89030536D01*
X123372553Y-89007998D01*
X123333516Y-88962946D01*
X123329050Y-88954182D01*
X123204109Y-88782213D01*
X123053786Y-88631890D01*
X122881820Y-88506951D01*
X122692414Y-88410444D01*
X122692413Y-88410443D01*
X122692412Y-88410443D01*
X122490243Y-88344754D01*
X122490241Y-88344753D01*
X122490240Y-88344753D01*
X122328957Y-88319208D01*
X122280287Y-88311500D01*
X122067713Y-88311500D01*
X122019042Y-88319208D01*
X121857760Y-88344753D01*
X121655585Y-88410444D01*
X121466179Y-88506951D01*
X121294213Y-88631890D01*
X121143890Y-88782213D01*
X121018949Y-88954182D01*
X121014484Y-88962946D01*
X120966509Y-89013742D01*
X120898688Y-89030536D01*
X120832553Y-89007998D01*
X120793516Y-88962946D01*
X120789050Y-88954182D01*
X120664109Y-88782213D01*
X120513786Y-88631890D01*
X120341820Y-88506951D01*
X120152414Y-88410444D01*
X120152413Y-88410443D01*
X120152412Y-88410443D01*
X119950243Y-88344754D01*
X119950241Y-88344753D01*
X119950240Y-88344753D01*
X119788957Y-88319208D01*
X119740287Y-88311500D01*
X119527713Y-88311500D01*
X119479042Y-88319208D01*
X119317760Y-88344753D01*
X119115585Y-88410444D01*
X118926179Y-88506951D01*
X118754213Y-88631890D01*
X118603890Y-88782213D01*
X118478949Y-88954182D01*
X118474484Y-88962946D01*
X118426509Y-89013742D01*
X118358688Y-89030536D01*
X118292553Y-89007998D01*
X118253516Y-88962946D01*
X118249050Y-88954182D01*
X118124109Y-88782213D01*
X117973786Y-88631890D01*
X117801820Y-88506951D01*
X117612414Y-88410444D01*
X117612413Y-88410443D01*
X117612412Y-88410443D01*
X117410243Y-88344754D01*
X117410241Y-88344753D01*
X117410240Y-88344753D01*
X117248957Y-88319208D01*
X117200287Y-88311500D01*
X116987713Y-88311500D01*
X116939042Y-88319208D01*
X116777760Y-88344753D01*
X116575585Y-88410444D01*
X116386179Y-88506951D01*
X116214213Y-88631890D01*
X116063890Y-88782213D01*
X115938949Y-88954182D01*
X115934484Y-88962946D01*
X115886509Y-89013742D01*
X115818688Y-89030536D01*
X115752553Y-89007998D01*
X115713516Y-88962946D01*
X115709050Y-88954182D01*
X115584109Y-88782213D01*
X115433786Y-88631890D01*
X115261820Y-88506951D01*
X115072414Y-88410444D01*
X115072413Y-88410443D01*
X115072412Y-88410443D01*
X114870243Y-88344754D01*
X114870241Y-88344753D01*
X114870240Y-88344753D01*
X114708957Y-88319208D01*
X114660287Y-88311500D01*
X114447713Y-88311500D01*
X114399042Y-88319208D01*
X114237760Y-88344753D01*
X114035585Y-88410444D01*
X113846179Y-88506951D01*
X113674213Y-88631890D01*
X113523890Y-88782213D01*
X113398949Y-88954182D01*
X113394484Y-88962946D01*
X113346509Y-89013742D01*
X113278688Y-89030536D01*
X113212553Y-89007998D01*
X113173516Y-88962946D01*
X113169050Y-88954182D01*
X113044109Y-88782213D01*
X112893786Y-88631890D01*
X112721820Y-88506951D01*
X112532414Y-88410444D01*
X112532413Y-88410443D01*
X112532412Y-88410443D01*
X112330243Y-88344754D01*
X112330241Y-88344753D01*
X112330240Y-88344753D01*
X112168957Y-88319208D01*
X112120287Y-88311500D01*
X111907713Y-88311500D01*
X111859042Y-88319208D01*
X111697760Y-88344753D01*
X111495585Y-88410444D01*
X111306179Y-88506951D01*
X111134213Y-88631890D01*
X110983890Y-88782213D01*
X110858949Y-88954182D01*
X110854484Y-88962946D01*
X110806509Y-89013742D01*
X110738688Y-89030536D01*
X110672553Y-89007998D01*
X110633516Y-88962946D01*
X110629050Y-88954182D01*
X110504109Y-88782213D01*
X110353786Y-88631890D01*
X110181820Y-88506951D01*
X110115354Y-88473085D01*
X110064558Y-88425110D01*
X110047763Y-88357289D01*
X110070300Y-88291154D01*
X110083962Y-88274925D01*
X121711570Y-76647319D01*
X121772893Y-76613834D01*
X121799251Y-76611000D01*
X137214260Y-76611000D01*
X137281299Y-76630685D01*
G37*
%TD.AperFunction*%
%TA.AperFunction,Conductor*%
G36*
X188002702Y-72500617D02*
G01*
X188386773Y-72517386D01*
X188397505Y-72518326D01*
X188775963Y-72568150D01*
X188786601Y-72570025D01*
X189159279Y-72652647D01*
X189169720Y-72655445D01*
X189533765Y-72770227D01*
X189543911Y-72773920D01*
X189896578Y-72920000D01*
X189906369Y-72924566D01*
X190244942Y-73100816D01*
X190254310Y-73106224D01*
X190576244Y-73311318D01*
X190585105Y-73317523D01*
X190887930Y-73549889D01*
X190896217Y-73556843D01*
X191177635Y-73814715D01*
X191185284Y-73822364D01*
X191443156Y-74103782D01*
X191450110Y-74112069D01*
X191682476Y-74414894D01*
X191688681Y-74423755D01*
X191893775Y-74745689D01*
X191899183Y-74755057D01*
X192075430Y-75093623D01*
X192080002Y-75103427D01*
X192226075Y-75456078D01*
X192229775Y-75466244D01*
X192344553Y-75830276D01*
X192347353Y-75840724D01*
X192429972Y-76213390D01*
X192431850Y-76224044D01*
X192481671Y-76602472D01*
X192482614Y-76613248D01*
X192499382Y-76997297D01*
X192499500Y-77002706D01*
X192499500Y-115997293D01*
X192499382Y-116002702D01*
X192482614Y-116386751D01*
X192481671Y-116397527D01*
X192431850Y-116775955D01*
X192429972Y-116786609D01*
X192347353Y-117159275D01*
X192344553Y-117169723D01*
X192229775Y-117533755D01*
X192226075Y-117543921D01*
X192080002Y-117896572D01*
X192075430Y-117906376D01*
X191899183Y-118244942D01*
X191893775Y-118254310D01*
X191688681Y-118576244D01*
X191682476Y-118585105D01*
X191450110Y-118887930D01*
X191443156Y-118896217D01*
X191185284Y-119177635D01*
X191177635Y-119185284D01*
X190896217Y-119443156D01*
X190887930Y-119450110D01*
X190585105Y-119682476D01*
X190576244Y-119688681D01*
X190254310Y-119893775D01*
X190244942Y-119899183D01*
X189906376Y-120075430D01*
X189896572Y-120080002D01*
X189543921Y-120226075D01*
X189533755Y-120229775D01*
X189169723Y-120344553D01*
X189159275Y-120347353D01*
X188786609Y-120429972D01*
X188775955Y-120431850D01*
X188397527Y-120481671D01*
X188386751Y-120482614D01*
X188002703Y-120499382D01*
X187997294Y-120499500D01*
X104002706Y-120499500D01*
X103997297Y-120499382D01*
X103613248Y-120482614D01*
X103602474Y-120481671D01*
X103540007Y-120473447D01*
X103224044Y-120431850D01*
X103213390Y-120429972D01*
X102840724Y-120347353D01*
X102830276Y-120344553D01*
X102466244Y-120229775D01*
X102456078Y-120226075D01*
X102103427Y-120080002D01*
X102093623Y-120075430D01*
X101755057Y-119899183D01*
X101745689Y-119893775D01*
X101423755Y-119688681D01*
X101414894Y-119682476D01*
X101112069Y-119450110D01*
X101103782Y-119443156D01*
X100822364Y-119185284D01*
X100814715Y-119177635D01*
X100556843Y-118896217D01*
X100549889Y-118887930D01*
X100317523Y-118585105D01*
X100311318Y-118576244D01*
X100106224Y-118254310D01*
X100100816Y-118244942D01*
X99924569Y-117906376D01*
X99919997Y-117896572D01*
X99773920Y-117543911D01*
X99770224Y-117533755D01*
X99726243Y-117394265D01*
X99655445Y-117169720D01*
X99652646Y-117159275D01*
X99570027Y-116786609D01*
X99568149Y-116775955D01*
X99555642Y-116680953D01*
X99518326Y-116397505D01*
X99517386Y-116386773D01*
X99500618Y-116002702D01*
X99500500Y-115997293D01*
X99500500Y-115878711D01*
X102149500Y-115878711D01*
X102149500Y-116121288D01*
X102181161Y-116361785D01*
X102243947Y-116596104D01*
X102322857Y-116786609D01*
X102336776Y-116820212D01*
X102458064Y-117030289D01*
X102458066Y-117030292D01*
X102458067Y-117030293D01*
X102605733Y-117222736D01*
X102605739Y-117222743D01*
X102777256Y-117394260D01*
X102777262Y-117394265D01*
X102969711Y-117541936D01*
X103179788Y-117663224D01*
X103403900Y-117756054D01*
X103638211Y-117818838D01*
X103818586Y-117842584D01*
X103878711Y-117850500D01*
X103878712Y-117850500D01*
X104121289Y-117850500D01*
X104169388Y-117844167D01*
X104361789Y-117818838D01*
X104596100Y-117756054D01*
X104820212Y-117663224D01*
X105030289Y-117541936D01*
X105222738Y-117394265D01*
X105394265Y-117222738D01*
X105541936Y-117030289D01*
X105663224Y-116820212D01*
X105756054Y-116596100D01*
X105818838Y-116361789D01*
X105850500Y-116121288D01*
X105850500Y-115878712D01*
X105850500Y-115878711D01*
X186149500Y-115878711D01*
X186149500Y-116121288D01*
X186181161Y-116361785D01*
X186243947Y-116596104D01*
X186322857Y-116786609D01*
X186336776Y-116820212D01*
X186458064Y-117030289D01*
X186458066Y-117030292D01*
X186458067Y-117030293D01*
X186605733Y-117222736D01*
X186605739Y-117222743D01*
X186777256Y-117394260D01*
X186777262Y-117394265D01*
X186969711Y-117541936D01*
X187179788Y-117663224D01*
X187403900Y-117756054D01*
X187638211Y-117818838D01*
X187818586Y-117842584D01*
X187878711Y-117850500D01*
X187878712Y-117850500D01*
X188121289Y-117850500D01*
X188169388Y-117844167D01*
X188361789Y-117818838D01*
X188596100Y-117756054D01*
X188820212Y-117663224D01*
X189030289Y-117541936D01*
X189222738Y-117394265D01*
X189394265Y-117222738D01*
X189541936Y-117030289D01*
X189663224Y-116820212D01*
X189756054Y-116596100D01*
X189818838Y-116361789D01*
X189850500Y-116121288D01*
X189850500Y-115878712D01*
X189818838Y-115638211D01*
X189756054Y-115403900D01*
X189663224Y-115179788D01*
X189541936Y-114969711D01*
X189394265Y-114777262D01*
X189394260Y-114777256D01*
X189222743Y-114605739D01*
X189222736Y-114605733D01*
X189030293Y-114458067D01*
X189030292Y-114458066D01*
X189030289Y-114458064D01*
X188820212Y-114336776D01*
X188820205Y-114336773D01*
X188596104Y-114243947D01*
X188361785Y-114181161D01*
X188121289Y-114149500D01*
X188121288Y-114149500D01*
X187878712Y-114149500D01*
X187878711Y-114149500D01*
X187638214Y-114181161D01*
X187403895Y-114243947D01*
X187179794Y-114336773D01*
X187179785Y-114336777D01*
X186969706Y-114458067D01*
X186777263Y-114605733D01*
X186777256Y-114605739D01*
X186605739Y-114777256D01*
X186605733Y-114777263D01*
X186458067Y-114969706D01*
X186336777Y-115179785D01*
X186336773Y-115179794D01*
X186243947Y-115403895D01*
X186181161Y-115638214D01*
X186149500Y-115878711D01*
X105850500Y-115878711D01*
X105818838Y-115638211D01*
X105756054Y-115403900D01*
X105663224Y-115179788D01*
X105541936Y-114969711D01*
X105394265Y-114777262D01*
X105394260Y-114777256D01*
X105222743Y-114605739D01*
X105222736Y-114605733D01*
X105030293Y-114458067D01*
X105030292Y-114458066D01*
X105030289Y-114458064D01*
X104820212Y-114336776D01*
X104820205Y-114336773D01*
X104596104Y-114243947D01*
X104361785Y-114181161D01*
X104121289Y-114149500D01*
X104121288Y-114149500D01*
X103878712Y-114149500D01*
X103878711Y-114149500D01*
X103638214Y-114181161D01*
X103403895Y-114243947D01*
X103179794Y-114336773D01*
X103179785Y-114336777D01*
X102969706Y-114458067D01*
X102777263Y-114605733D01*
X102777256Y-114605739D01*
X102605739Y-114777256D01*
X102605733Y-114777263D01*
X102458067Y-114969706D01*
X102336777Y-115179785D01*
X102336773Y-115179794D01*
X102243947Y-115403895D01*
X102181161Y-115638214D01*
X102149500Y-115878711D01*
X99500500Y-115878711D01*
X99500500Y-108204071D01*
X113030000Y-108204071D01*
X113030000Y-108455928D01*
X113069397Y-108704669D01*
X113147219Y-108944184D01*
X113261557Y-109168583D01*
X113335748Y-109270697D01*
X113335748Y-109270698D01*
X113952421Y-108654024D01*
X113965359Y-108685258D01*
X114047437Y-108808097D01*
X114151903Y-108912563D01*
X114274742Y-108994641D01*
X114305974Y-109007577D01*
X113689300Y-109624250D01*
X113791416Y-109698442D01*
X114015815Y-109812780D01*
X114255330Y-109890602D01*
X114504072Y-109930000D01*
X114755928Y-109930000D01*
X115004669Y-109890602D01*
X115244184Y-109812780D01*
X115468575Y-109698446D01*
X115468581Y-109698442D01*
X115570697Y-109624250D01*
X115570698Y-109624250D01*
X114954025Y-109007578D01*
X114985258Y-108994641D01*
X115108097Y-108912563D01*
X115212563Y-108808097D01*
X115294641Y-108685258D01*
X115307578Y-108654025D01*
X115924250Y-109270698D01*
X115924250Y-109270697D01*
X115998442Y-109168581D01*
X115998446Y-109168575D01*
X116112780Y-108944184D01*
X116190602Y-108704669D01*
X116230000Y-108455928D01*
X116230000Y-108204071D01*
X132280000Y-108204071D01*
X132280000Y-108455928D01*
X132319397Y-108704669D01*
X132397219Y-108944184D01*
X132511557Y-109168583D01*
X132585748Y-109270697D01*
X132585748Y-109270698D01*
X133202421Y-108654024D01*
X133215359Y-108685258D01*
X133297437Y-108808097D01*
X133401903Y-108912563D01*
X133524742Y-108994641D01*
X133555974Y-109007577D01*
X132939300Y-109624250D01*
X133041416Y-109698442D01*
X133265815Y-109812780D01*
X133505330Y-109890602D01*
X133754072Y-109930000D01*
X134005928Y-109930000D01*
X134254669Y-109890602D01*
X134494184Y-109812780D01*
X134718575Y-109698446D01*
X134718581Y-109698442D01*
X134820697Y-109624250D01*
X134820698Y-109624250D01*
X134204025Y-109007578D01*
X134235258Y-108994641D01*
X134358097Y-108912563D01*
X134462563Y-108808097D01*
X134544641Y-108685258D01*
X134557577Y-108654025D01*
X135174250Y-109270698D01*
X135174250Y-109270697D01*
X135248442Y-109168581D01*
X135248446Y-109168575D01*
X135362780Y-108944184D01*
X135440602Y-108704669D01*
X135480000Y-108455928D01*
X135480000Y-108204071D01*
X151530000Y-108204071D01*
X151530000Y-108455928D01*
X151569397Y-108704669D01*
X151647219Y-108944184D01*
X151761557Y-109168583D01*
X151835748Y-109270697D01*
X151835748Y-109270698D01*
X152452421Y-108654024D01*
X152465359Y-108685258D01*
X152547437Y-108808097D01*
X152651903Y-108912563D01*
X152774742Y-108994641D01*
X152805974Y-109007577D01*
X152189300Y-109624250D01*
X152291416Y-109698442D01*
X152515815Y-109812780D01*
X152755330Y-109890602D01*
X153004072Y-109930000D01*
X153255928Y-109930000D01*
X153504669Y-109890602D01*
X153744184Y-109812780D01*
X153968575Y-109698446D01*
X153968581Y-109698442D01*
X154070697Y-109624250D01*
X154070698Y-109624250D01*
X153454025Y-109007578D01*
X153485258Y-108994641D01*
X153608097Y-108912563D01*
X153712563Y-108808097D01*
X153794641Y-108685258D01*
X153807578Y-108654025D01*
X154424250Y-109270698D01*
X154424250Y-109270697D01*
X154498442Y-109168581D01*
X154498446Y-109168575D01*
X154612780Y-108944184D01*
X154690602Y-108704669D01*
X154730000Y-108455928D01*
X154730000Y-108204071D01*
X170800000Y-108204071D01*
X170800000Y-108455928D01*
X170839397Y-108704669D01*
X170917219Y-108944184D01*
X171031557Y-109168583D01*
X171105748Y-109270697D01*
X171105748Y-109270698D01*
X171722421Y-108654024D01*
X171735359Y-108685258D01*
X171817437Y-108808097D01*
X171921903Y-108912563D01*
X172044742Y-108994641D01*
X172075974Y-109007577D01*
X171459300Y-109624250D01*
X171561416Y-109698442D01*
X171785815Y-109812780D01*
X172025330Y-109890602D01*
X172274072Y-109930000D01*
X172525928Y-109930000D01*
X172774669Y-109890602D01*
X173014184Y-109812780D01*
X173238575Y-109698446D01*
X173238581Y-109698442D01*
X173340697Y-109624250D01*
X173340698Y-109624250D01*
X172724025Y-109007578D01*
X172755258Y-108994641D01*
X172878097Y-108912563D01*
X172982563Y-108808097D01*
X173064641Y-108685258D01*
X173077578Y-108654025D01*
X173694250Y-109270698D01*
X173694250Y-109270697D01*
X173768442Y-109168581D01*
X173768446Y-109168575D01*
X173882780Y-108944184D01*
X173960602Y-108704669D01*
X174000000Y-108455928D01*
X174000000Y-108204071D01*
X173960602Y-107955330D01*
X173882780Y-107715815D01*
X173768442Y-107491416D01*
X173694250Y-107389301D01*
X173694250Y-107389300D01*
X173077577Y-108005973D01*
X173064641Y-107974742D01*
X172982563Y-107851903D01*
X172878097Y-107747437D01*
X172755258Y-107665359D01*
X172724024Y-107652421D01*
X173340698Y-107035748D01*
X173238583Y-106961557D01*
X173014184Y-106847219D01*
X172774669Y-106769397D01*
X172525928Y-106730000D01*
X172274072Y-106730000D01*
X172025330Y-106769397D01*
X171785815Y-106847219D01*
X171561413Y-106961559D01*
X171459301Y-107035747D01*
X171459300Y-107035748D01*
X172075974Y-107652421D01*
X172044742Y-107665359D01*
X171921903Y-107747437D01*
X171817437Y-107851903D01*
X171735359Y-107974742D01*
X171722421Y-108005974D01*
X171105748Y-107389300D01*
X171105747Y-107389301D01*
X171031559Y-107491413D01*
X170917219Y-107715815D01*
X170839397Y-107955330D01*
X170800000Y-108204071D01*
X154730000Y-108204071D01*
X154690602Y-107955330D01*
X154612780Y-107715815D01*
X154498442Y-107491416D01*
X154424250Y-107389301D01*
X154424250Y-107389300D01*
X153807577Y-108005973D01*
X153794641Y-107974742D01*
X153712563Y-107851903D01*
X153608097Y-107747437D01*
X153485258Y-107665359D01*
X153454024Y-107652421D01*
X154070698Y-107035748D01*
X153968583Y-106961557D01*
X153744184Y-106847219D01*
X153504669Y-106769397D01*
X153255928Y-106730000D01*
X153004072Y-106730000D01*
X152755330Y-106769397D01*
X152515815Y-106847219D01*
X152291413Y-106961559D01*
X152189301Y-107035747D01*
X152189300Y-107035748D01*
X152805974Y-107652421D01*
X152774742Y-107665359D01*
X152651903Y-107747437D01*
X152547437Y-107851903D01*
X152465359Y-107974742D01*
X152452421Y-108005974D01*
X151835748Y-107389300D01*
X151835747Y-107389301D01*
X151761559Y-107491413D01*
X151647219Y-107715815D01*
X151569397Y-107955330D01*
X151530000Y-108204071D01*
X135480000Y-108204071D01*
X135440602Y-107955330D01*
X135362780Y-107715815D01*
X135248442Y-107491416D01*
X135174250Y-107389301D01*
X135174250Y-107389300D01*
X134557577Y-108005973D01*
X134544641Y-107974742D01*
X134462563Y-107851903D01*
X134358097Y-107747437D01*
X134235258Y-107665359D01*
X134204024Y-107652421D01*
X134820698Y-107035748D01*
X134718583Y-106961557D01*
X134494184Y-106847219D01*
X134254669Y-106769397D01*
X134005928Y-106730000D01*
X133754072Y-106730000D01*
X133505330Y-106769397D01*
X133265815Y-106847219D01*
X133041413Y-106961559D01*
X132939301Y-107035747D01*
X132939300Y-107035748D01*
X133555974Y-107652421D01*
X133524742Y-107665359D01*
X133401903Y-107747437D01*
X133297437Y-107851903D01*
X133215359Y-107974742D01*
X133202421Y-108005974D01*
X132585748Y-107389300D01*
X132585747Y-107389301D01*
X132511559Y-107491413D01*
X132397219Y-107715815D01*
X132319397Y-107955330D01*
X132280000Y-108204071D01*
X116230000Y-108204071D01*
X116190602Y-107955330D01*
X116112780Y-107715815D01*
X115998442Y-107491416D01*
X115924250Y-107389301D01*
X115924250Y-107389300D01*
X115307577Y-108005973D01*
X115294641Y-107974742D01*
X115212563Y-107851903D01*
X115108097Y-107747437D01*
X114985258Y-107665359D01*
X114954024Y-107652421D01*
X115570698Y-107035748D01*
X115468583Y-106961557D01*
X115244184Y-106847219D01*
X115004669Y-106769397D01*
X114755928Y-106730000D01*
X114504072Y-106730000D01*
X114255330Y-106769397D01*
X114015815Y-106847219D01*
X113791413Y-106961559D01*
X113689301Y-107035747D01*
X113689300Y-107035748D01*
X114305974Y-107652421D01*
X114274742Y-107665359D01*
X114151903Y-107747437D01*
X114047437Y-107851903D01*
X113965359Y-107974742D01*
X113952421Y-108005974D01*
X113335748Y-107389300D01*
X113335747Y-107389301D01*
X113261559Y-107491413D01*
X113147219Y-107715815D01*
X113069397Y-107955330D01*
X113030000Y-108204071D01*
X99500500Y-108204071D01*
X99500500Y-103163389D01*
X110989500Y-103163389D01*
X110989500Y-103336611D01*
X111016598Y-103507701D01*
X111070127Y-103672445D01*
X111148768Y-103826788D01*
X111250586Y-103966928D01*
X111373072Y-104089414D01*
X111513212Y-104191232D01*
X111667555Y-104269873D01*
X111832299Y-104323402D01*
X112003389Y-104350500D01*
X112003390Y-104350500D01*
X112176610Y-104350500D01*
X112176611Y-104350500D01*
X112347701Y-104323402D01*
X112512445Y-104269873D01*
X112666788Y-104191232D01*
X112806928Y-104089414D01*
X112929414Y-103966928D01*
X113031232Y-103826788D01*
X113109873Y-103672445D01*
X113163402Y-103507701D01*
X113190500Y-103336611D01*
X113190500Y-103163389D01*
X113163402Y-102992299D01*
X113109873Y-102827555D01*
X113031232Y-102673212D01*
X112929414Y-102533072D01*
X112806928Y-102410586D01*
X112666788Y-102308768D01*
X112512445Y-102230127D01*
X112347701Y-102176598D01*
X112347699Y-102176597D01*
X112347698Y-102176597D01*
X112202857Y-102153657D01*
X112176611Y-102149500D01*
X112003389Y-102149500D01*
X111977143Y-102153657D01*
X111832302Y-102176597D01*
X111667552Y-102230128D01*
X111513211Y-102308768D01*
X111433256Y-102366859D01*
X111373072Y-102410586D01*
X111373070Y-102410588D01*
X111373069Y-102410588D01*
X111250588Y-102533069D01*
X111250588Y-102533070D01*
X111250586Y-102533072D01*
X111206859Y-102593256D01*
X111148768Y-102673211D01*
X111070128Y-102827552D01*
X111016597Y-102992302D01*
X110989500Y-103163389D01*
X99500500Y-103163389D01*
X99500500Y-90217400D01*
X107723498Y-90217400D01*
X107764423Y-90370131D01*
X107793358Y-90420246D01*
X107793359Y-90420250D01*
X107793360Y-90420250D01*
X107830244Y-90484137D01*
X107843479Y-90507060D01*
X107843481Y-90507063D01*
X107962349Y-90625931D01*
X107962355Y-90625936D01*
X118438847Y-101102428D01*
X118472332Y-101163751D01*
X118467348Y-101233443D01*
X118425476Y-101289376D01*
X118360012Y-101313793D01*
X118291739Y-101298941D01*
X118289167Y-101297496D01*
X118167517Y-101227262D01*
X118167509Y-101227258D01*
X118167507Y-101227257D01*
X118167500Y-101227254D01*
X117894961Y-101114364D01*
X117894954Y-101114362D01*
X117894952Y-101114361D01*
X117609993Y-101038007D01*
X117561113Y-101031571D01*
X117317513Y-100999500D01*
X117317506Y-100999500D01*
X117022494Y-100999500D01*
X117022486Y-100999500D01*
X116744085Y-101036153D01*
X116730007Y-101038007D01*
X116489583Y-101102428D01*
X116445048Y-101114361D01*
X116445038Y-101114364D01*
X116172499Y-101227254D01*
X116172489Y-101227258D01*
X115917006Y-101374761D01*
X115682959Y-101554352D01*
X115682952Y-101554358D01*
X115474358Y-101762952D01*
X115474352Y-101762959D01*
X115294761Y-101997006D01*
X115147258Y-102252489D01*
X115147254Y-102252499D01*
X115034364Y-102525038D01*
X115034361Y-102525048D01*
X114958008Y-102810004D01*
X114958006Y-102810015D01*
X114919500Y-103102486D01*
X114919500Y-103397513D01*
X114951571Y-103641113D01*
X114958007Y-103689993D01*
X115032212Y-103966930D01*
X115034361Y-103974951D01*
X115034364Y-103974961D01*
X115147254Y-104247500D01*
X115147258Y-104247510D01*
X115294761Y-104502993D01*
X115474352Y-104737040D01*
X115474358Y-104737047D01*
X115682952Y-104945641D01*
X115682959Y-104945647D01*
X115917006Y-105125238D01*
X116172489Y-105272741D01*
X116172490Y-105272741D01*
X116172493Y-105272743D01*
X116445048Y-105385639D01*
X116730007Y-105461993D01*
X117022494Y-105500500D01*
X117022501Y-105500500D01*
X117317499Y-105500500D01*
X117317506Y-105500500D01*
X117609993Y-105461993D01*
X117894952Y-105385639D01*
X118167507Y-105272743D01*
X118422994Y-105125238D01*
X118657042Y-104945646D01*
X118865646Y-104737042D01*
X119045238Y-104502994D01*
X119192743Y-104247507D01*
X119305639Y-103974952D01*
X119381993Y-103689993D01*
X119420500Y-103397506D01*
X119420500Y-103102494D01*
X119381993Y-102810007D01*
X119305639Y-102525048D01*
X119192743Y-102252493D01*
X119158772Y-102193654D01*
X119122503Y-102130833D01*
X119106030Y-102062933D01*
X119128883Y-101996906D01*
X119183804Y-101953715D01*
X119253357Y-101947074D01*
X119315460Y-101979090D01*
X119317571Y-101981152D01*
X120343181Y-103006762D01*
X120376666Y-103068085D01*
X120379500Y-103094443D01*
X120379500Y-104223699D01*
X120359815Y-104290738D01*
X120311795Y-104334184D01*
X120141151Y-104421132D01*
X119937350Y-104569201D01*
X119937345Y-104569205D01*
X119759205Y-104747345D01*
X119759201Y-104747350D01*
X119611132Y-104951151D01*
X119496760Y-105175616D01*
X119418910Y-105415214D01*
X119379500Y-105664038D01*
X119379500Y-105915961D01*
X119418910Y-106164785D01*
X119496760Y-106404383D01*
X119611132Y-106628848D01*
X119759201Y-106832649D01*
X119759205Y-106832654D01*
X119937345Y-107010794D01*
X119937350Y-107010798D01*
X120115117Y-107139952D01*
X120141155Y-107158870D01*
X120284184Y-107231747D01*
X120365616Y-107273239D01*
X120365618Y-107273239D01*
X120365621Y-107273241D01*
X120605215Y-107351090D01*
X120854038Y-107390500D01*
X120854039Y-107390500D01*
X121105961Y-107390500D01*
X121105962Y-107390500D01*
X121354785Y-107351090D01*
X121594379Y-107273241D01*
X121818845Y-107158870D01*
X122022656Y-107010793D01*
X122200793Y-106832656D01*
X122348870Y-106628845D01*
X122463241Y-106404379D01*
X122541090Y-106164785D01*
X122580500Y-105915962D01*
X122580500Y-105664038D01*
X122541090Y-105415215D01*
X122463241Y-105175621D01*
X122463239Y-105175618D01*
X122463239Y-105175616D01*
X122421747Y-105094184D01*
X122348870Y-104951155D01*
X122329952Y-104925117D01*
X122200798Y-104747350D01*
X122200794Y-104747345D01*
X122022650Y-104569201D01*
X122016336Y-104564614D01*
X121973672Y-104509283D01*
X121967694Y-104439670D01*
X122000302Y-104377875D01*
X122061141Y-104343520D01*
X122108618Y-104341825D01*
X122163389Y-104350500D01*
X122163391Y-104350500D01*
X122336610Y-104350500D01*
X122336611Y-104350500D01*
X122507701Y-104323402D01*
X122672445Y-104269873D01*
X122826788Y-104191232D01*
X122966928Y-104089414D01*
X123089414Y-103966928D01*
X123191232Y-103826788D01*
X123269873Y-103672445D01*
X123323402Y-103507701D01*
X123350500Y-103336611D01*
X123350500Y-103163389D01*
X130239500Y-103163389D01*
X130239500Y-103336611D01*
X130266598Y-103507701D01*
X130320127Y-103672445D01*
X130398768Y-103826788D01*
X130500586Y-103966928D01*
X130623072Y-104089414D01*
X130763212Y-104191232D01*
X130917555Y-104269873D01*
X131082299Y-104323402D01*
X131253389Y-104350500D01*
X131253390Y-104350500D01*
X131426610Y-104350500D01*
X131426611Y-104350500D01*
X131597701Y-104323402D01*
X131762445Y-104269873D01*
X131916788Y-104191232D01*
X132056928Y-104089414D01*
X132179414Y-103966928D01*
X132281232Y-103826788D01*
X132359873Y-103672445D01*
X132413402Y-103507701D01*
X132440500Y-103336611D01*
X132440500Y-103163389D01*
X132430854Y-103102486D01*
X134169500Y-103102486D01*
X134169500Y-103397513D01*
X134201571Y-103641113D01*
X134208007Y-103689993D01*
X134282212Y-103966930D01*
X134284361Y-103974951D01*
X134284364Y-103974961D01*
X134397254Y-104247500D01*
X134397258Y-104247510D01*
X134544761Y-104502993D01*
X134724352Y-104737040D01*
X134724358Y-104737047D01*
X134932952Y-104945641D01*
X134932959Y-104945647D01*
X135167006Y-105125238D01*
X135422489Y-105272741D01*
X135422490Y-105272741D01*
X135422493Y-105272743D01*
X135695048Y-105385639D01*
X135980007Y-105461993D01*
X136272494Y-105500500D01*
X136272501Y-105500500D01*
X136567499Y-105500500D01*
X136567506Y-105500500D01*
X136859993Y-105461993D01*
X137144952Y-105385639D01*
X137417507Y-105272743D01*
X137672994Y-105125238D01*
X137907042Y-104945646D01*
X138115646Y-104737042D01*
X138295238Y-104502994D01*
X138442743Y-104247507D01*
X138555639Y-103974952D01*
X138631993Y-103689993D01*
X138670500Y-103397506D01*
X138670500Y-103102494D01*
X138631993Y-102810007D01*
X138555639Y-102525048D01*
X138442743Y-102252493D01*
X138408772Y-102193654D01*
X138295238Y-101997006D01*
X138115647Y-101762959D01*
X138115641Y-101762952D01*
X137907047Y-101554358D01*
X137907040Y-101554352D01*
X137672993Y-101374761D01*
X137417510Y-101227258D01*
X137417500Y-101227254D01*
X137144961Y-101114364D01*
X137144954Y-101114362D01*
X137144952Y-101114361D01*
X136859993Y-101038007D01*
X136811113Y-101031571D01*
X136567513Y-100999500D01*
X136567506Y-100999500D01*
X136272494Y-100999500D01*
X136272486Y-100999500D01*
X135994085Y-101036153D01*
X135980007Y-101038007D01*
X135739583Y-101102428D01*
X135695048Y-101114361D01*
X135695038Y-101114364D01*
X135422499Y-101227254D01*
X135422489Y-101227258D01*
X135167006Y-101374761D01*
X134932959Y-101554352D01*
X134932952Y-101554358D01*
X134724358Y-101762952D01*
X134724352Y-101762959D01*
X134544761Y-101997006D01*
X134397258Y-102252489D01*
X134397254Y-102252499D01*
X134284364Y-102525038D01*
X134284361Y-102525048D01*
X134208008Y-102810004D01*
X134208006Y-102810015D01*
X134169500Y-103102486D01*
X132430854Y-103102486D01*
X132413402Y-102992299D01*
X132359873Y-102827555D01*
X132281232Y-102673212D01*
X132179414Y-102533072D01*
X132056928Y-102410586D01*
X131916788Y-102308768D01*
X131762445Y-102230127D01*
X131597701Y-102176598D01*
X131597699Y-102176597D01*
X131597698Y-102176597D01*
X131452857Y-102153657D01*
X131426611Y-102149500D01*
X131253389Y-102149500D01*
X131227143Y-102153657D01*
X131082302Y-102176597D01*
X130917552Y-102230128D01*
X130763211Y-102308768D01*
X130683256Y-102366859D01*
X130623072Y-102410586D01*
X130623070Y-102410588D01*
X130623069Y-102410588D01*
X130500588Y-102533069D01*
X130500588Y-102533070D01*
X130500586Y-102533072D01*
X130456859Y-102593256D01*
X130398768Y-102673211D01*
X130320128Y-102827552D01*
X130266597Y-102992302D01*
X130239500Y-103163389D01*
X123350500Y-103163389D01*
X123323402Y-102992299D01*
X123269873Y-102827555D01*
X123191232Y-102673212D01*
X123089414Y-102533072D01*
X122966928Y-102410586D01*
X122826788Y-102308768D01*
X122672445Y-102230127D01*
X122507701Y-102176598D01*
X122507699Y-102176597D01*
X122507698Y-102176597D01*
X122362857Y-102153657D01*
X122336611Y-102149500D01*
X122163389Y-102149500D01*
X122137143Y-102153657D01*
X121992302Y-102176597D01*
X121827552Y-102230128D01*
X121673207Y-102308770D01*
X121568016Y-102385196D01*
X121535919Y-102396648D01*
X121503979Y-102408562D01*
X121503078Y-102408366D01*
X121502210Y-102408676D01*
X121469016Y-102400956D01*
X121435706Y-102393711D01*
X121434736Y-102392984D01*
X121434156Y-102392850D01*
X121407451Y-102372561D01*
X121348716Y-102313826D01*
X121348713Y-102313824D01*
X113319070Y-94284181D01*
X113285585Y-94222858D01*
X113290569Y-94153166D01*
X113332441Y-94097233D01*
X113397905Y-94072816D01*
X113406751Y-94072500D01*
X150089298Y-94072500D01*
X150156337Y-94092185D01*
X150202092Y-94144989D01*
X150212036Y-94214147D01*
X150183011Y-94277703D01*
X150176979Y-94284181D01*
X147329979Y-97131181D01*
X147268656Y-97164666D01*
X147242298Y-97167500D01*
X140150943Y-97167500D01*
X139998216Y-97208423D01*
X139998209Y-97208426D01*
X139861290Y-97287475D01*
X139861282Y-97287481D01*
X139749481Y-97399282D01*
X139749475Y-97399290D01*
X139670426Y-97536209D01*
X139670423Y-97536216D01*
X139629500Y-97688943D01*
X139629500Y-104223699D01*
X139609815Y-104290738D01*
X139561795Y-104334184D01*
X139391151Y-104421132D01*
X139187350Y-104569201D01*
X139187345Y-104569205D01*
X139009205Y-104747345D01*
X139009201Y-104747350D01*
X138861132Y-104951151D01*
X138746760Y-105175616D01*
X138668910Y-105415214D01*
X138629500Y-105664038D01*
X138629500Y-105915961D01*
X138668910Y-106164785D01*
X138746760Y-106404383D01*
X138861132Y-106628848D01*
X139009201Y-106832649D01*
X139009205Y-106832654D01*
X139187345Y-107010794D01*
X139187350Y-107010798D01*
X139365117Y-107139952D01*
X139391155Y-107158870D01*
X139534184Y-107231747D01*
X139615616Y-107273239D01*
X139615618Y-107273239D01*
X139615621Y-107273241D01*
X139855215Y-107351090D01*
X140104038Y-107390500D01*
X140104039Y-107390500D01*
X140355961Y-107390500D01*
X140355962Y-107390500D01*
X140604785Y-107351090D01*
X140844379Y-107273241D01*
X141068845Y-107158870D01*
X141272656Y-107010793D01*
X141450793Y-106832656D01*
X141598870Y-106628845D01*
X141713241Y-106404379D01*
X141791090Y-106164785D01*
X141830500Y-105915962D01*
X141830500Y-105664038D01*
X141791090Y-105415215D01*
X141713241Y-105175621D01*
X141713239Y-105175618D01*
X141713239Y-105175616D01*
X141671747Y-105094184D01*
X141598870Y-104951155D01*
X141579952Y-104925117D01*
X141450798Y-104747350D01*
X141450794Y-104747345D01*
X141272650Y-104569201D01*
X141266336Y-104564614D01*
X141223672Y-104509283D01*
X141217694Y-104439670D01*
X141250302Y-104377875D01*
X141311141Y-104343520D01*
X141358618Y-104341825D01*
X141413389Y-104350500D01*
X141413391Y-104350500D01*
X141586610Y-104350500D01*
X141586611Y-104350500D01*
X141757701Y-104323402D01*
X141922445Y-104269873D01*
X142076788Y-104191232D01*
X142216928Y-104089414D01*
X142339414Y-103966928D01*
X142441232Y-103826788D01*
X142519873Y-103672445D01*
X142573402Y-103507701D01*
X142600500Y-103336611D01*
X142600500Y-103163389D01*
X149489500Y-103163389D01*
X149489500Y-103336611D01*
X149516598Y-103507701D01*
X149570127Y-103672445D01*
X149648768Y-103826788D01*
X149750586Y-103966928D01*
X149873072Y-104089414D01*
X150013212Y-104191232D01*
X150167555Y-104269873D01*
X150332299Y-104323402D01*
X150503389Y-104350500D01*
X150503390Y-104350500D01*
X150676610Y-104350500D01*
X150676611Y-104350500D01*
X150847701Y-104323402D01*
X151012445Y-104269873D01*
X151166788Y-104191232D01*
X151306928Y-104089414D01*
X151429414Y-103966928D01*
X151531232Y-103826788D01*
X151609873Y-103672445D01*
X151663402Y-103507701D01*
X151690500Y-103336611D01*
X151690500Y-103163389D01*
X151680854Y-103102486D01*
X153419500Y-103102486D01*
X153419500Y-103397513D01*
X153451571Y-103641113D01*
X153458007Y-103689993D01*
X153532212Y-103966930D01*
X153534361Y-103974951D01*
X153534364Y-103974961D01*
X153647254Y-104247500D01*
X153647258Y-104247510D01*
X153794761Y-104502993D01*
X153974352Y-104737040D01*
X153974358Y-104737047D01*
X154182952Y-104945641D01*
X154182959Y-104945647D01*
X154417006Y-105125238D01*
X154672489Y-105272741D01*
X154672490Y-105272741D01*
X154672493Y-105272743D01*
X154945048Y-105385639D01*
X155230007Y-105461993D01*
X155522494Y-105500500D01*
X155522501Y-105500500D01*
X155817499Y-105500500D01*
X155817506Y-105500500D01*
X156109993Y-105461993D01*
X156394952Y-105385639D01*
X156667507Y-105272743D01*
X156922994Y-105125238D01*
X157157042Y-104945646D01*
X157365646Y-104737042D01*
X157545238Y-104502994D01*
X157692743Y-104247507D01*
X157805639Y-103974952D01*
X157881993Y-103689993D01*
X157920500Y-103397506D01*
X157920500Y-103102494D01*
X157881993Y-102810007D01*
X157805639Y-102525048D01*
X157692743Y-102252493D01*
X157658772Y-102193654D01*
X157545238Y-101997006D01*
X157365647Y-101762959D01*
X157365641Y-101762952D01*
X157157047Y-101554358D01*
X157157040Y-101554352D01*
X156922993Y-101374761D01*
X156667510Y-101227258D01*
X156667500Y-101227254D01*
X156394961Y-101114364D01*
X156394954Y-101114362D01*
X156394952Y-101114361D01*
X156109993Y-101038007D01*
X156061113Y-101031571D01*
X155817513Y-100999500D01*
X155817506Y-100999500D01*
X155522494Y-100999500D01*
X155522486Y-100999500D01*
X155244085Y-101036153D01*
X155230007Y-101038007D01*
X154989583Y-101102428D01*
X154945048Y-101114361D01*
X154945038Y-101114364D01*
X154672499Y-101227254D01*
X154672489Y-101227258D01*
X154417006Y-101374761D01*
X154182959Y-101554352D01*
X154182952Y-101554358D01*
X153974358Y-101762952D01*
X153974352Y-101762959D01*
X153794761Y-101997006D01*
X153647258Y-102252489D01*
X153647254Y-102252499D01*
X153534364Y-102525038D01*
X153534361Y-102525048D01*
X153458008Y-102810004D01*
X153458006Y-102810015D01*
X153419500Y-103102486D01*
X151680854Y-103102486D01*
X151663402Y-102992299D01*
X151609873Y-102827555D01*
X151531232Y-102673212D01*
X151429414Y-102533072D01*
X151306928Y-102410586D01*
X151166788Y-102308768D01*
X151012445Y-102230127D01*
X150847701Y-102176598D01*
X150847699Y-102176597D01*
X150847698Y-102176597D01*
X150702857Y-102153657D01*
X150676611Y-102149500D01*
X150503389Y-102149500D01*
X150477143Y-102153657D01*
X150332302Y-102176597D01*
X150167552Y-102230128D01*
X150013211Y-102308768D01*
X149933256Y-102366859D01*
X149873072Y-102410586D01*
X149873070Y-102410588D01*
X149873069Y-102410588D01*
X149750588Y-102533069D01*
X149750588Y-102533070D01*
X149750586Y-102533072D01*
X149706859Y-102593256D01*
X149648768Y-102673211D01*
X149570128Y-102827552D01*
X149516597Y-102992302D01*
X149489500Y-103163389D01*
X142600500Y-103163389D01*
X142573402Y-102992299D01*
X142519873Y-102827555D01*
X142441232Y-102673212D01*
X142339414Y-102533072D01*
X142216928Y-102410586D01*
X142076788Y-102308768D01*
X141922445Y-102230127D01*
X141757701Y-102176598D01*
X141757699Y-102176597D01*
X141757698Y-102176597D01*
X141612857Y-102153657D01*
X141586611Y-102149500D01*
X141413389Y-102149500D01*
X141387143Y-102153657D01*
X141242302Y-102176597D01*
X141077549Y-102230129D01*
X141010794Y-102264142D01*
X140942125Y-102277038D01*
X140877384Y-102250761D01*
X140837128Y-102193654D01*
X140830500Y-102153657D01*
X140830500Y-98492500D01*
X140850185Y-98425461D01*
X140902989Y-98379706D01*
X140954500Y-98368500D01*
X147455726Y-98368500D01*
X147455742Y-98368501D01*
X147463338Y-98368501D01*
X147621449Y-98368501D01*
X147621452Y-98368501D01*
X147774180Y-98327577D01*
X147824299Y-98298639D01*
X147911111Y-98248520D01*
X148022915Y-98136716D01*
X148022915Y-98136714D01*
X148033123Y-98126507D01*
X148033125Y-98126504D01*
X155040506Y-91119123D01*
X155040511Y-91119119D01*
X155050714Y-91108915D01*
X155050716Y-91108915D01*
X155162520Y-90997111D01*
X155223750Y-90891057D01*
X155241577Y-90860180D01*
X155282500Y-90707453D01*
X155282500Y-90549338D01*
X155282500Y-81377597D01*
X155302185Y-81310558D01*
X155354989Y-81264803D01*
X155424147Y-81254859D01*
X155487703Y-81283884D01*
X155494181Y-81289916D01*
X158843181Y-84638916D01*
X158876666Y-84700239D01*
X158879500Y-84726597D01*
X158879500Y-104223699D01*
X158859815Y-104290738D01*
X158811795Y-104334184D01*
X158641151Y-104421132D01*
X158437350Y-104569201D01*
X158437345Y-104569205D01*
X158259205Y-104747345D01*
X158259201Y-104747350D01*
X158111132Y-104951151D01*
X157996760Y-105175616D01*
X157918910Y-105415214D01*
X157879500Y-105664038D01*
X157879500Y-105915961D01*
X157918910Y-106164785D01*
X157996760Y-106404383D01*
X158111132Y-106628848D01*
X158259201Y-106832649D01*
X158259205Y-106832654D01*
X158437345Y-107010794D01*
X158437350Y-107010798D01*
X158615117Y-107139952D01*
X158641155Y-107158870D01*
X158784184Y-107231747D01*
X158865616Y-107273239D01*
X158865618Y-107273239D01*
X158865621Y-107273241D01*
X159105215Y-107351090D01*
X159354038Y-107390500D01*
X159354039Y-107390500D01*
X159605961Y-107390500D01*
X159605962Y-107390500D01*
X159854785Y-107351090D01*
X160094379Y-107273241D01*
X160318845Y-107158870D01*
X160522656Y-107010793D01*
X160700793Y-106832656D01*
X160848870Y-106628845D01*
X160963241Y-106404379D01*
X161041090Y-106164785D01*
X161080500Y-105915962D01*
X161080500Y-105664038D01*
X161041090Y-105415215D01*
X160963241Y-105175621D01*
X160963239Y-105175618D01*
X160963239Y-105175616D01*
X160921747Y-105094184D01*
X160848870Y-104951155D01*
X160829952Y-104925117D01*
X160700798Y-104747350D01*
X160700794Y-104747345D01*
X160522650Y-104569201D01*
X160516336Y-104564614D01*
X160473672Y-104509283D01*
X160467694Y-104439670D01*
X160500302Y-104377875D01*
X160561141Y-104343520D01*
X160608618Y-104341825D01*
X160663389Y-104350500D01*
X160663391Y-104350500D01*
X160836610Y-104350500D01*
X160836611Y-104350500D01*
X161007701Y-104323402D01*
X161172445Y-104269873D01*
X161326788Y-104191232D01*
X161466928Y-104089414D01*
X161589414Y-103966928D01*
X161691232Y-103826788D01*
X161769873Y-103672445D01*
X161823402Y-103507701D01*
X161850500Y-103336611D01*
X161850500Y-103163389D01*
X168759500Y-103163389D01*
X168759500Y-103336611D01*
X168786598Y-103507701D01*
X168840127Y-103672445D01*
X168918768Y-103826788D01*
X169020586Y-103966928D01*
X169143072Y-104089414D01*
X169283212Y-104191232D01*
X169437555Y-104269873D01*
X169602299Y-104323402D01*
X169773389Y-104350500D01*
X169773390Y-104350500D01*
X169946610Y-104350500D01*
X169946611Y-104350500D01*
X170117701Y-104323402D01*
X170282445Y-104269873D01*
X170436788Y-104191232D01*
X170576928Y-104089414D01*
X170699414Y-103966928D01*
X170801232Y-103826788D01*
X170879873Y-103672445D01*
X170933402Y-103507701D01*
X170960500Y-103336611D01*
X170960500Y-103163389D01*
X170950854Y-103102486D01*
X172689500Y-103102486D01*
X172689500Y-103397513D01*
X172721571Y-103641113D01*
X172728007Y-103689993D01*
X172802212Y-103966930D01*
X172804361Y-103974951D01*
X172804364Y-103974961D01*
X172917254Y-104247500D01*
X172917258Y-104247510D01*
X173064761Y-104502993D01*
X173244352Y-104737040D01*
X173244358Y-104737047D01*
X173452952Y-104945641D01*
X173452959Y-104945647D01*
X173687006Y-105125238D01*
X173942489Y-105272741D01*
X173942490Y-105272741D01*
X173942493Y-105272743D01*
X174215048Y-105385639D01*
X174500007Y-105461993D01*
X174792494Y-105500500D01*
X174792501Y-105500500D01*
X175087499Y-105500500D01*
X175087506Y-105500500D01*
X175379993Y-105461993D01*
X175664952Y-105385639D01*
X175937507Y-105272743D01*
X176192994Y-105125238D01*
X176427042Y-104945646D01*
X176635646Y-104737042D01*
X176815238Y-104502994D01*
X176962743Y-104247507D01*
X177075639Y-103974952D01*
X177151993Y-103689993D01*
X177190500Y-103397506D01*
X177190500Y-103102494D01*
X177151993Y-102810007D01*
X177075639Y-102525048D01*
X176962743Y-102252493D01*
X176928772Y-102193654D01*
X176815238Y-101997006D01*
X176635647Y-101762959D01*
X176635641Y-101762952D01*
X176427047Y-101554358D01*
X176427040Y-101554352D01*
X176192993Y-101374761D01*
X175937510Y-101227258D01*
X175937500Y-101227254D01*
X175664961Y-101114364D01*
X175664954Y-101114362D01*
X175664952Y-101114361D01*
X175379993Y-101038007D01*
X175331113Y-101031571D01*
X175087513Y-100999500D01*
X175087506Y-100999500D01*
X174792494Y-100999500D01*
X174792486Y-100999500D01*
X174514085Y-101036153D01*
X174500007Y-101038007D01*
X174259583Y-101102428D01*
X174215048Y-101114361D01*
X174215038Y-101114364D01*
X173942499Y-101227254D01*
X173942489Y-101227258D01*
X173687006Y-101374761D01*
X173452959Y-101554352D01*
X173452952Y-101554358D01*
X173244358Y-101762952D01*
X173244352Y-101762959D01*
X173064761Y-101997006D01*
X172917258Y-102252489D01*
X172917254Y-102252499D01*
X172804364Y-102525038D01*
X172804361Y-102525048D01*
X172728008Y-102810004D01*
X172728006Y-102810015D01*
X172689500Y-103102486D01*
X170950854Y-103102486D01*
X170933402Y-102992299D01*
X170879873Y-102827555D01*
X170801232Y-102673212D01*
X170699414Y-102533072D01*
X170576928Y-102410586D01*
X170436788Y-102308768D01*
X170282445Y-102230127D01*
X170117701Y-102176598D01*
X170117699Y-102176597D01*
X170117698Y-102176597D01*
X169972857Y-102153657D01*
X169946611Y-102149500D01*
X169773389Y-102149500D01*
X169747143Y-102153657D01*
X169602302Y-102176597D01*
X169437552Y-102230128D01*
X169283211Y-102308768D01*
X169203256Y-102366859D01*
X169143072Y-102410586D01*
X169143070Y-102410588D01*
X169143069Y-102410588D01*
X169020588Y-102533069D01*
X169020588Y-102533070D01*
X169020586Y-102533072D01*
X168976859Y-102593256D01*
X168918768Y-102673211D01*
X168840128Y-102827552D01*
X168786597Y-102992302D01*
X168759500Y-103163389D01*
X161850500Y-103163389D01*
X161823402Y-102992299D01*
X161769873Y-102827555D01*
X161691232Y-102673212D01*
X161589414Y-102533072D01*
X161466928Y-102410586D01*
X161326788Y-102308768D01*
X161172445Y-102230127D01*
X161007701Y-102176598D01*
X161007699Y-102176597D01*
X161007698Y-102176597D01*
X160862857Y-102153657D01*
X160836611Y-102149500D01*
X160663389Y-102149500D01*
X160637143Y-102153657D01*
X160492302Y-102176597D01*
X160327549Y-102230129D01*
X160260794Y-102264142D01*
X160192125Y-102277038D01*
X160127384Y-102250761D01*
X160087128Y-102193654D01*
X160080500Y-102153657D01*
X160080500Y-84347445D01*
X160080500Y-84347443D01*
X160039577Y-84194716D01*
X160039577Y-84194715D01*
X160039577Y-84194714D01*
X160010639Y-84144595D01*
X160010637Y-84144592D01*
X159960520Y-84057784D01*
X159848716Y-83945980D01*
X159848715Y-83945979D01*
X159844385Y-83941649D01*
X159844374Y-83941639D01*
X155450718Y-79547983D01*
X155450716Y-79547981D01*
X155344498Y-79486655D01*
X155296284Y-79436088D01*
X155282500Y-79379269D01*
X155282500Y-78797702D01*
X155302185Y-78730663D01*
X155354989Y-78684908D01*
X155424147Y-78674964D01*
X155487703Y-78703989D01*
X155494181Y-78710021D01*
X178113181Y-101329021D01*
X178146666Y-101390344D01*
X178149500Y-101416702D01*
X178149500Y-104223699D01*
X178129815Y-104290738D01*
X178081795Y-104334184D01*
X177911151Y-104421132D01*
X177707350Y-104569201D01*
X177707345Y-104569205D01*
X177529205Y-104747345D01*
X177529201Y-104747350D01*
X177381132Y-104951151D01*
X177266760Y-105175616D01*
X177188910Y-105415214D01*
X177149500Y-105664038D01*
X177149500Y-105915961D01*
X177188910Y-106164785D01*
X177266760Y-106404383D01*
X177381132Y-106628848D01*
X177529201Y-106832649D01*
X177529205Y-106832654D01*
X177707345Y-107010794D01*
X177707350Y-107010798D01*
X177885117Y-107139952D01*
X177911155Y-107158870D01*
X178054184Y-107231747D01*
X178135616Y-107273239D01*
X178135618Y-107273239D01*
X178135621Y-107273241D01*
X178375215Y-107351090D01*
X178624038Y-107390500D01*
X178624039Y-107390500D01*
X178875961Y-107390500D01*
X178875962Y-107390500D01*
X179124785Y-107351090D01*
X179364379Y-107273241D01*
X179588845Y-107158870D01*
X179792656Y-107010793D01*
X179970793Y-106832656D01*
X180118870Y-106628845D01*
X180233241Y-106404379D01*
X180311090Y-106164785D01*
X180350500Y-105915962D01*
X180350500Y-105664038D01*
X180311090Y-105415215D01*
X180233241Y-105175621D01*
X180233239Y-105175618D01*
X180233239Y-105175616D01*
X180191747Y-105094184D01*
X180118870Y-104951155D01*
X180099952Y-104925117D01*
X179970798Y-104747350D01*
X179970794Y-104747345D01*
X179792650Y-104569201D01*
X179786336Y-104564614D01*
X179743672Y-104509283D01*
X179737694Y-104439670D01*
X179770302Y-104377875D01*
X179831141Y-104343520D01*
X179878618Y-104341825D01*
X179933389Y-104350500D01*
X179933391Y-104350500D01*
X180106610Y-104350500D01*
X180106611Y-104350500D01*
X180277701Y-104323402D01*
X180442445Y-104269873D01*
X180596788Y-104191232D01*
X180736928Y-104089414D01*
X180859414Y-103966928D01*
X180961232Y-103826788D01*
X181039873Y-103672445D01*
X181093402Y-103507701D01*
X181120500Y-103336611D01*
X181120500Y-103163389D01*
X181093402Y-102992299D01*
X181039873Y-102827555D01*
X180961232Y-102673212D01*
X180859414Y-102533072D01*
X180736928Y-102410586D01*
X180596788Y-102308768D01*
X180442445Y-102230127D01*
X180277701Y-102176598D01*
X180277699Y-102176597D01*
X180277698Y-102176597D01*
X180132857Y-102153657D01*
X180106611Y-102149500D01*
X179933389Y-102149500D01*
X179907143Y-102153657D01*
X179762302Y-102176597D01*
X179597549Y-102230129D01*
X179530794Y-102264142D01*
X179462125Y-102277038D01*
X179397384Y-102250761D01*
X179357128Y-102193654D01*
X179350500Y-102153657D01*
X179350500Y-101037550D01*
X179350500Y-101037548D01*
X179309577Y-100884821D01*
X179309573Y-100884814D01*
X179230524Y-100747895D01*
X179230521Y-100747891D01*
X179230520Y-100747889D01*
X179118716Y-100636085D01*
X179118715Y-100636084D01*
X179114385Y-100631754D01*
X179114374Y-100631744D01*
X166734765Y-88252135D01*
X174999500Y-88252135D01*
X174999500Y-90347870D01*
X174999501Y-90347876D01*
X175005908Y-90407483D01*
X175056202Y-90542328D01*
X175056206Y-90542335D01*
X175142452Y-90657544D01*
X175142455Y-90657547D01*
X175257664Y-90743793D01*
X175257671Y-90743797D01*
X175392517Y-90794091D01*
X175392516Y-90794091D01*
X175399444Y-90794835D01*
X175452127Y-90800500D01*
X177547872Y-90800499D01*
X177607483Y-90794091D01*
X177742331Y-90743796D01*
X177857546Y-90657546D01*
X177943796Y-90542331D01*
X177994091Y-90407483D01*
X178000500Y-90347873D01*
X178000499Y-88252128D01*
X177994091Y-88192517D01*
X177943796Y-88057669D01*
X177943795Y-88057668D01*
X177943793Y-88057664D01*
X177857547Y-87942455D01*
X177857544Y-87942452D01*
X177742335Y-87856206D01*
X177742328Y-87856202D01*
X177607482Y-87805908D01*
X177607483Y-87805908D01*
X177547883Y-87799501D01*
X177547881Y-87799500D01*
X177547873Y-87799500D01*
X177547864Y-87799500D01*
X175452129Y-87799500D01*
X175452123Y-87799501D01*
X175392516Y-87805908D01*
X175257671Y-87856202D01*
X175257664Y-87856206D01*
X175142455Y-87942452D01*
X175142452Y-87942455D01*
X175056206Y-88057664D01*
X175056202Y-88057671D01*
X175005908Y-88192517D01*
X174999501Y-88252116D01*
X174999501Y-88252123D01*
X174999500Y-88252135D01*
X166734765Y-88252135D01*
X160064577Y-81581947D01*
X175000000Y-81581947D01*
X175000000Y-81818052D01*
X175036934Y-82051247D01*
X175109897Y-82275802D01*
X175217087Y-82486174D01*
X175277338Y-82569104D01*
X175277340Y-82569105D01*
X176017037Y-81829408D01*
X176034075Y-81892993D01*
X176099901Y-82007007D01*
X176192993Y-82100099D01*
X176307007Y-82165925D01*
X176370590Y-82182962D01*
X175630893Y-82922658D01*
X175713828Y-82982914D01*
X175924197Y-83090102D01*
X176148752Y-83163065D01*
X176148751Y-83163065D01*
X176381948Y-83200000D01*
X176618052Y-83200000D01*
X176851247Y-83163065D01*
X177075802Y-83090102D01*
X177286163Y-82982918D01*
X177286169Y-82982914D01*
X177369104Y-82922658D01*
X177369105Y-82922658D01*
X176629408Y-82182962D01*
X176692993Y-82165925D01*
X176807007Y-82100099D01*
X176900099Y-82007007D01*
X176965925Y-81892993D01*
X176982962Y-81829409D01*
X177722658Y-82569105D01*
X177722658Y-82569104D01*
X177782914Y-82486169D01*
X177782918Y-82486163D01*
X177890102Y-82275802D01*
X177963065Y-82051247D01*
X178000000Y-81818052D01*
X178000000Y-81581947D01*
X177963065Y-81348752D01*
X177890102Y-81124197D01*
X177782914Y-80913828D01*
X177722658Y-80830894D01*
X177722658Y-80830893D01*
X176982962Y-81570590D01*
X176965925Y-81507007D01*
X176900099Y-81392993D01*
X176807007Y-81299901D01*
X176692993Y-81234075D01*
X176629409Y-81217037D01*
X177369105Y-80477340D01*
X177369104Y-80477338D01*
X177286174Y-80417087D01*
X177075802Y-80309897D01*
X176851247Y-80236934D01*
X176851248Y-80236934D01*
X176618052Y-80200000D01*
X176381948Y-80200000D01*
X176148752Y-80236934D01*
X175924197Y-80309897D01*
X175713830Y-80417084D01*
X175630894Y-80477340D01*
X176370591Y-81217037D01*
X176307007Y-81234075D01*
X176192993Y-81299901D01*
X176099901Y-81392993D01*
X176034075Y-81507007D01*
X176017037Y-81570590D01*
X175277340Y-80830894D01*
X175217084Y-80913830D01*
X175109897Y-81124197D01*
X175036934Y-81348752D01*
X175000000Y-81581947D01*
X160064577Y-81581947D01*
X155361341Y-76878711D01*
X186149500Y-76878711D01*
X186149500Y-77121288D01*
X186181161Y-77361785D01*
X186243947Y-77596104D01*
X186312428Y-77761430D01*
X186336776Y-77820212D01*
X186458064Y-78030289D01*
X186458066Y-78030292D01*
X186458067Y-78030293D01*
X186605733Y-78222736D01*
X186605739Y-78222743D01*
X186777256Y-78394260D01*
X186777262Y-78394265D01*
X186969711Y-78541936D01*
X187179788Y-78663224D01*
X187316648Y-78719913D01*
X187391698Y-78751000D01*
X187403900Y-78756054D01*
X187638211Y-78818838D01*
X187818586Y-78842584D01*
X187878711Y-78850500D01*
X187878712Y-78850500D01*
X188121289Y-78850500D01*
X188169388Y-78844167D01*
X188361789Y-78818838D01*
X188596100Y-78756054D01*
X188820212Y-78663224D01*
X189030289Y-78541936D01*
X189222738Y-78394265D01*
X189394265Y-78222738D01*
X189541936Y-78030289D01*
X189663224Y-77820212D01*
X189756054Y-77596100D01*
X189818838Y-77361789D01*
X189850500Y-77121288D01*
X189850500Y-76878712D01*
X189849253Y-76869243D01*
X189836517Y-76772498D01*
X189818838Y-76638211D01*
X189756054Y-76403900D01*
X189663224Y-76179788D01*
X189541936Y-75969711D01*
X189394265Y-75777262D01*
X189394260Y-75777256D01*
X189222743Y-75605739D01*
X189222736Y-75605733D01*
X189030293Y-75458067D01*
X189030292Y-75458066D01*
X189030289Y-75458064D01*
X188820212Y-75336776D01*
X188795254Y-75326438D01*
X188596104Y-75243947D01*
X188361785Y-75181161D01*
X188121289Y-75149500D01*
X188121288Y-75149500D01*
X187878712Y-75149500D01*
X187878711Y-75149500D01*
X187638214Y-75181161D01*
X187403895Y-75243947D01*
X187179794Y-75336773D01*
X187179785Y-75336777D01*
X186969706Y-75458067D01*
X186777263Y-75605733D01*
X186777256Y-75605739D01*
X186605739Y-75777256D01*
X186605733Y-75777263D01*
X186458067Y-75969706D01*
X186336777Y-76179785D01*
X186336773Y-76179794D01*
X186243947Y-76403895D01*
X186181161Y-76638214D01*
X186149500Y-76878711D01*
X155361341Y-76878711D01*
X154547484Y-76064854D01*
X154540415Y-76057785D01*
X154540415Y-76057784D01*
X154505968Y-76023337D01*
X154472483Y-75962014D01*
X154477102Y-75897445D01*
X154477468Y-75892323D01*
X154505969Y-75847976D01*
X154523669Y-75830276D01*
X154582981Y-75770964D01*
X154699787Y-75610194D01*
X154790005Y-75433132D01*
X154851413Y-75244136D01*
X154882500Y-75047861D01*
X154882500Y-74849139D01*
X154851413Y-74652864D01*
X154790005Y-74463868D01*
X154790005Y-74463867D01*
X154699786Y-74286805D01*
X154582981Y-74126036D01*
X154442464Y-73985519D01*
X154281694Y-73868713D01*
X154104632Y-73778494D01*
X154104629Y-73778493D01*
X153915637Y-73717087D01*
X153817498Y-73701543D01*
X153719361Y-73686000D01*
X153520639Y-73686000D01*
X153455214Y-73696362D01*
X153324362Y-73717087D01*
X153135370Y-73778493D01*
X153135367Y-73778494D01*
X152958305Y-73868713D01*
X152797533Y-73985521D01*
X152657021Y-74126033D01*
X152540213Y-74286805D01*
X152449994Y-74463867D01*
X152449993Y-74463870D01*
X152388587Y-74652862D01*
X152357500Y-74849139D01*
X152357500Y-75047860D01*
X152388586Y-75244136D01*
X152389131Y-75246403D01*
X152389086Y-75247290D01*
X152389349Y-75248948D01*
X152389000Y-75249003D01*
X152388612Y-75256767D01*
X152392240Y-75266493D01*
X152386895Y-75291067D01*
X152385638Y-75316185D01*
X152379202Y-75326438D01*
X152377391Y-75334767D01*
X152356241Y-75363022D01*
X152345587Y-75373677D01*
X152284266Y-75407165D01*
X152257902Y-75410000D01*
X139728192Y-75410000D01*
X139661153Y-75390315D01*
X139615398Y-75337511D01*
X139605454Y-75268353D01*
X139610262Y-75247680D01*
X139611412Y-75244138D01*
X139611413Y-75244136D01*
X139642500Y-75047861D01*
X139642500Y-74849139D01*
X139611413Y-74652864D01*
X139550005Y-74463868D01*
X139550005Y-74463867D01*
X139459786Y-74286805D01*
X139342981Y-74126036D01*
X139202464Y-73985519D01*
X139041694Y-73868713D01*
X138864632Y-73778494D01*
X138864629Y-73778493D01*
X138675637Y-73717087D01*
X138577498Y-73701543D01*
X138479361Y-73686000D01*
X138280639Y-73686000D01*
X138215214Y-73696362D01*
X138084362Y-73717087D01*
X137895370Y-73778493D01*
X137895367Y-73778494D01*
X137718305Y-73868713D01*
X137557533Y-73985521D01*
X137417021Y-74126033D01*
X137300213Y-74286805D01*
X137209994Y-74463867D01*
X137209993Y-74463870D01*
X137148587Y-74652862D01*
X137117500Y-74849139D01*
X137117500Y-75047860D01*
X137148587Y-75244138D01*
X137149738Y-75247680D01*
X137151735Y-75317521D01*
X137115655Y-75377354D01*
X137052955Y-75408184D01*
X137031808Y-75410000D01*
X121420094Y-75410000D01*
X121379173Y-75420964D01*
X121379173Y-75420965D01*
X121348567Y-75429166D01*
X121267368Y-75450923D01*
X121267363Y-75450926D01*
X121130444Y-75529975D01*
X121130436Y-75529981D01*
X107843481Y-88816936D01*
X107843475Y-88816944D01*
X107807122Y-88879911D01*
X107807122Y-88879913D01*
X107764423Y-88953868D01*
X107761991Y-88962946D01*
X107723499Y-89106597D01*
X107723499Y-89264711D01*
X107723499Y-89264713D01*
X107723500Y-89274707D01*
X107723500Y-90051676D01*
X107723499Y-90051694D01*
X107723499Y-90217400D01*
X107723498Y-90217400D01*
X99500500Y-90217400D01*
X99500500Y-77002706D01*
X99500618Y-76997297D01*
X99505796Y-76878711D01*
X102149500Y-76878711D01*
X102149500Y-77121288D01*
X102181161Y-77361785D01*
X102243947Y-77596104D01*
X102312428Y-77761430D01*
X102336776Y-77820212D01*
X102458064Y-78030289D01*
X102458066Y-78030292D01*
X102458067Y-78030293D01*
X102605733Y-78222736D01*
X102605739Y-78222743D01*
X102777256Y-78394260D01*
X102777262Y-78394265D01*
X102969711Y-78541936D01*
X103179788Y-78663224D01*
X103316648Y-78719913D01*
X103391698Y-78751000D01*
X103403900Y-78756054D01*
X103638211Y-78818838D01*
X103818586Y-78842584D01*
X103878711Y-78850500D01*
X103878712Y-78850500D01*
X104121289Y-78850500D01*
X104169388Y-78844167D01*
X104361789Y-78818838D01*
X104596100Y-78756054D01*
X104820212Y-78663224D01*
X105030289Y-78541936D01*
X105222738Y-78394265D01*
X105394265Y-78222738D01*
X105541936Y-78030289D01*
X105663224Y-77820212D01*
X105756054Y-77596100D01*
X105818838Y-77361789D01*
X105850500Y-77121288D01*
X105850500Y-76878712D01*
X105849253Y-76869243D01*
X105836517Y-76772498D01*
X105818838Y-76638211D01*
X105756054Y-76403900D01*
X105663224Y-76179788D01*
X105541936Y-75969711D01*
X105394265Y-75777262D01*
X105394260Y-75777256D01*
X105222743Y-75605739D01*
X105222736Y-75605733D01*
X105030293Y-75458067D01*
X105030292Y-75458066D01*
X105030289Y-75458064D01*
X104820212Y-75336776D01*
X104795254Y-75326438D01*
X104596104Y-75243947D01*
X104361785Y-75181161D01*
X104121289Y-75149500D01*
X104121288Y-75149500D01*
X103878712Y-75149500D01*
X103878711Y-75149500D01*
X103638214Y-75181161D01*
X103403895Y-75243947D01*
X103179794Y-75336773D01*
X103179785Y-75336777D01*
X102969706Y-75458067D01*
X102777263Y-75605733D01*
X102777256Y-75605739D01*
X102605739Y-75777256D01*
X102605733Y-75777263D01*
X102458067Y-75969706D01*
X102336777Y-76179785D01*
X102336773Y-76179794D01*
X102243947Y-76403895D01*
X102181161Y-76638214D01*
X102149500Y-76878711D01*
X99505796Y-76878711D01*
X99506209Y-76869244D01*
X99506209Y-76869243D01*
X99510686Y-76766700D01*
X99517386Y-76613226D01*
X99518325Y-76602496D01*
X99568151Y-76224032D01*
X99570024Y-76213402D01*
X99652648Y-75840714D01*
X99655446Y-75830276D01*
X99672161Y-75777263D01*
X99770230Y-75466227D01*
X99773917Y-75456095D01*
X99920003Y-75103412D01*
X99924561Y-75093638D01*
X100100822Y-74755045D01*
X100106217Y-74745700D01*
X100311325Y-74423744D01*
X100317515Y-74414905D01*
X100549896Y-74112060D01*
X100556834Y-74103791D01*
X100814726Y-73822352D01*
X100822352Y-73814726D01*
X101103791Y-73556834D01*
X101112060Y-73549896D01*
X101414905Y-73317515D01*
X101423744Y-73311325D01*
X101745700Y-73106217D01*
X101755045Y-73100822D01*
X102093638Y-72924561D01*
X102103412Y-72920003D01*
X102456095Y-72773917D01*
X102466227Y-72770230D01*
X102830285Y-72655443D01*
X102840714Y-72652648D01*
X103213402Y-72570024D01*
X103224032Y-72568151D01*
X103602496Y-72518325D01*
X103613224Y-72517387D01*
X103997297Y-72500617D01*
X104002706Y-72500500D01*
X104065892Y-72500500D01*
X187934108Y-72500500D01*
X187997294Y-72500500D01*
X188002702Y-72500617D01*
G37*
%TD.AperFunction*%
%TD*%
M02*
